<svg xmlns="http://www.w3.org/2000/svg" viewBox="0 0 148.85 153.79"><defs><style>.cls-1,.cls-16{fill:#c2bc8a;}.cls-2{fill:#ebebbe;}.cls-3,.cls-4{fill:none;}.cls-3{stroke:#1d1d1b;stroke-linecap:round;stroke-width:3px;}.cls-16,.cls-3{stroke-miterlimit:10;}.cls-5{fill:#e6d9dc;}.cls-6{fill:#5a5959;}.cls-7{fill:#353535;}.cls-8{fill:#c7b3b9;}.cls-9{fill:#d9c5c9;}.cls-10{fill:#787676;}.cls-11{fill:#1a1b18;}.cls-12{fill:#7f7e7f;}.cls-13{fill:#8c7d82;}.cls-14{fill:#ab9a9e;}.cls-15{fill:#8d7f83;}.cls-16{stroke:#e41c1b;}.cls-17{fill:#716568;}</style></defs><title>angus</title><g id="Capa_2" data-name="Capa 2"><g id="Capa_1-2" data-name="Capa 1"><path class="cls-1" d="M31,5.82s1-1,3.84-.72,9.74,1.26,9.74,1.26l-7.1,17.7S25,15.9,31,5.82Z"/><path class="cls-2" d="M40.07,5.82s1.08,1.56.12,1.92a17.62,17.62,0,0,1-2,.6s1.8.36.72.84-2.56-.23-3.36,1.2a11.76,11.76,0,0,0-1.08,3.48,2.21,2.21,0,0,1-1.68-2.28c-.12-2,.12-6.72.6-6.72S40.07,5.82,40.07,5.82Z"/><path class="cls-3" d="M31,5.82s1-1,3.84-.72,9.74,1.26,9.74,1.26l-7.1,17.7S25,15.9,31,5.82Z"/><path class="cls-4" d="M64.07,65.82c-11.3-2.91-33.38-7.49-43.36-9.52C13.93,66.4,8.18,74,4.31,88.38A80.43,80.43,0,0,0,2.39,121.5s8.4,14.4,30.24,20.88,27.84,8.16,42.72,9.6,30.24-2.64,30.24-2.64a256.09,256.09,0,0,0,9.12-31.68c1.57-7.53,3.83-17.11,5.91-26.28-2.74-1.68-6.45-4-11.43-7.32C94.31,74.22,79,69.66,64.07,65.82Z"/><path class="cls-5" d="M64.07,65.82c-11.3-2.91-33.38-7.49-43.36-9.52C13.93,66.4,8.18,74,4.31,88.38A80.43,80.43,0,0,0,2.39,121.5s8.4,14.4,30.24,20.88,27.84,8.16,42.72,9.6,30.24-2.64,30.24-2.64a256.09,256.09,0,0,0,9.12-31.68c1.57-7.53,3.83-17.11,5.91-26.28-2.74-1.68-6.45-4-11.43-7.32C94.31,74.22,79,69.66,64.07,65.82Z"/><path class="cls-4" d="M117.35,20c-5.76-5.52-28.56-13.2-59.52-18.24,0,0-11-2.4-15.12,7.92s-7.44,23-16.56,38.16c-1.87,3.1-3.69,5.87-5.44,8.48,10,2,32.06,6.61,43.36,9.52,14.88,3.84,30.24,8.4,45.12,18.24,5,3.29,8.69,5.64,11.43,7.32,2.36-10.42,4.49-20.3,5.13-26C127,54.54,123.11,25.5,117.35,20Z"/><path class="cls-6" d="M117.35,20c-5.76-5.52-28.56-13.2-59.52-18.24,0,0-11-2.4-15.12,7.92s-7.44,23-16.56,38.16c-1.87,3.1-3.69,5.87-5.44,8.48,10,2,32.06,6.61,43.36,9.52,14.88,3.84,30.24,8.4,45.12,18.24,5,3.29,8.69,5.64,11.43,7.32,2.36-10.42,4.49-20.3,5.13-26C127,54.54,123.11,25.5,117.35,20Z"/><path class="cls-7" d="M112.66,16.84l-4.19,5.06s2.64-3.36-.24,16.32c-2.67,18.24-6,38.54-6.42,41.4,2.47,1.36,4.93,2.82,7.38,4.44,5,3.29,8.69,5.64,11.43,7.32,2.36-10.42,4.49-20.3,5.13-26,1.2-10.8-2.64-39.84-8.4-45.36A21.56,21.56,0,0,0,112.66,16.84Z"/><path class="cls-8" d="M32.63,142.38c21.84,6.48,27.84,8.16,42.72,9.6s30.24-2.64,30.24-2.64a256.09,256.09,0,0,0,9.12-31.68c1.57-7.53,3.83-17.11,5.91-26.28-2.74-1.68-6.45-4-11.43-7.32-2.45-1.62-4.91-3.08-7.38-4.44a86,86,0,0,1-1.74,25.8c-3.12,14.64-7.68,24.48-13.44,25.2a96.39,96.39,0,0,1-50.64-7C12,113.34,7,102.54,7,102.54s-1.44,13.44-.24,17c.6,1.81.48,4.77.93,8.33A58.4,58.4,0,0,0,32.63,142.38Z"/><path class="cls-9" d="M43,61l-2.91-.18s-8.88-1.92-15.84,3.6-11,14.88-13.44,22.08S7,98,7,102.54s4.32,16.32,22.8,23.28,50.88,15.6,60.48,9.84S101.75,117.9,103,108.3s2.64-23.76,2.16-26.64l0-.16c-13.59-8.09-27.5-12.19-41-15.68C58.67,64.43,50.81,62.66,43,61Z"/><path class="cls-5" d="M89.51,73.74S105,89.79,99,110c0,0,4.23-12,3-24.21l-.18-6.12A128.29,128.29,0,0,0,89.51,73.74Z"/><path class="cls-5" d="M26.78,79.89s-.63-3.78,2.88-3.33a17.64,17.64,0,0,1,9.63,5C42.88,85,44,87.54,42.62,88s-2.52-1.35-2.88-1.8S26.78,79.89,26.78,79.89Z"/><path class="cls-5" d="M78.8,90.15s2.07-2.7-.63-2.88-5.67-1-10.53,1.8-7.74,7.11-7.2,8.82,1.57,1.78,2.43,1S65.39,93.57,69.8,92A33.4,33.4,0,0,1,78.8,90.15Z"/><path class="cls-10" d="M34.55,30.06l2.88-6s-4.32-6.72-11.28-7a33.68,33.68,0,0,0-12,1.68l-2.16,5a23.47,23.47,0,0,1,12.48,1C31.43,27.18,34.55,30.06,34.55,30.06Z"/><path class="cls-11" d="M12,23.82a15.32,15.32,0,0,0,2.4,8.88c2.88,4.8,5,7,8.88,8.88S28.55,43,28.55,43l6-13s-6-4.32-10.08-5.28S17.51,22.38,12,23.82Z"/><path class="cls-3" d="M37.19,24.06s-4.32-6.72-11.28-7a33.68,33.68,0,0,0-12,1.68l-2.16,5a15.32,15.32,0,0,0,2.4,8.88c2.88,4.8,5,7,8.88,8.88S28.31,43,28.31,43"/><path class="cls-12" d="M117.35,20c-5.76-5.52-28.56-13.2-59.52-18.24,0,0-8.46-1.83-13.3,4.62,4.64-.14,12.41-.12,18.1,1.14C71.27,9.42,109.43,25,109.43,25s5.28,1.44,8.16-2.64a5.36,5.36,0,0,0,.63-1.34A6.85,6.85,0,0,0,117.35,20Z"/><path class="cls-13" d="M114.71,117.66c1.57-7.53,3.83-17.11,5.91-26.28-1.68-1-3.72-2.3-6.18-3.89-.31,3.25-1,8.92-2.37,17.45-2.4,14.64-8.64,33.12-10.08,35.76s-2.64,3.36-9.6,3.84A119.67,119.67,0,0,1,47.27,140C25,133.5,15.35,125.1,7.19,120.54a12,12,0,0,0-5.2-1.8c.2,1.77.4,2.76.4,2.76s8.4,14.4,30.24,20.88,27.84,8.16,42.72,9.6,30.24-2.64,30.24-2.64A256.09,256.09,0,0,0,114.71,117.66Z"/><path class="cls-14" d="M35,81.66s-8.16-5-8.16.48c0,4.11.73,9,3.84,10.8s6,2.16,8.16.48C41.42,91.44,41.75,86,35,81.66Z"/><path class="cls-14" d="M80.11,93.31a2.84,2.84,0,0,0-2.45-3,17.94,17.94,0,0,0-7.35.75c-5,1.44-8.48,6.85-6.84,9s4,3.5,8.52,1.82C77.43,99.82,79.75,97.64,80.11,93.31Z"/><path class="cls-15" d="M37.58,90.15S32.81,90.06,31.1,87a11.4,11.4,0,0,1-1-6.84s5.13,2.25,7,4.86S39.56,89.52,37.58,90.15Z"/><path class="cls-15" d="M78.89,91.77s1.08,1.35.9,2.25-1.71-.45-2.61-.63-1.08-.36-2.07.36-1.26,2.16-4.41,2.61a25.4,25.4,0,0,1-5.67.18s.9-3.33,2.52-4.23a22.75,22.75,0,0,1,7.29-1.8A13.28,13.28,0,0,1,78.89,91.77Z"/><path class="cls-3" d="M57.83,1.74h0s-11-2.4-15.12,7.92-7.44,23-16.56,38.16S9.18,70.27,4.31,88.38A80.43,80.43,0,0,0,2.39,121.5s8.4,14.4,30.24,20.88,27.84,8.16,42.72,9.6,30.24-2.64,30.24-2.64a256.09,256.09,0,0,0,9.12-31.68c3.36-16.08,9.84-41.52,11-52.32S123.11,25.5,117.35,20,88.79,6.78,57.83,1.74Z"/><path class="cls-16" d="M120.47,25.26s-6.72,3.36-7.92,7.68-.24,10.56,1.68,11.76,13.08,1.68,17-3.84C135,35.71,137.27,30.54,120.47,25.26Z"/><path class="cls-1" d="M120.47,25.26s-6.72,3.36-7.92,7.68-.24,10.56,1.68,11.76,13.08,1.68,17-3.84C135,35.71,137.27,30.54,120.47,25.26Z"/><path class="cls-2" d="M127.32,27.88c-1.15.17-3.1.63-3,1.82.12,1.68,2.76,4.32,2.76,4.32s-5.64-3.6-5.4-2.16,2.88,2,2.88,3.24-2.16,3.36-4.44,2.88-.48,2.28,2.64,2.28,5.88-.48,7,.24a3.26,3.26,0,0,0,1.47.5l.09-.14C133.87,36.26,136.29,32.17,127.32,27.88Z"/><path class="cls-3" d="M120.47,25.26s-6.72,3.36-7.92,7.68-.24,10.56,1.68,11.76,13.08,1.68,17-3.84C135,35.71,137.27,30.54,120.47,25.26Z"/><path class="cls-10" d="M111.59,45.66s13.2-1.92,20.64,1.68,15.12,8.4,14.88,11.52-2.4,8.88-2.4,8.88S138.23,57.9,131.51,56s-17.28-3.12-20.64-1.92Z"/><path class="cls-11" d="M108.23,65.58S115.91,73,126,73.5s16.32.24,17-1a29.26,29.26,0,0,0,1.68-4.8S139,58.38,131.51,56s-18-2.64-20.64-1.92Z"/><path class="cls-3" d="M111.83,45.66s13.2-1.92,20.64,1.68,15.12,8.4,14.88,11.52-2.4,8.88-2.4,8.88a29.26,29.26,0,0,1-1.68,4.8c-.72,1.2-7,1.44-17,1s-17.76-7.92-17.76-7.92"/><path class="cls-17" d="M35,81.66s-4.73-2.92-7-1.87c0,.28.34.76,2,1.45,3,1.27,5.58,3,6.93,5s2.06,5.73,2.9,6.09C41.34,89.79,40.72,85.32,35,81.66Z"/><path class="cls-17" d="M77.66,90.27a17.94,17.94,0,0,0-7.35.75c-5,1.44-8.48,6.85-6.84,9,.14.18.28.35.43.52l.05,0a15.51,15.51,0,0,1,2.61-5.76c1.36-1.56,6-3.24,8.73-3.24a6.47,6.47,0,0,1,4.32,1.62l.5.22v0a2.75,2.75,0,0,0-.38-1.66A2.88,2.88,0,0,0,77.66,90.27Z"/></g></g></svg>