<svg xmlns="http://www.w3.org/2000/svg" viewBox="0 0 150.94 158.17"><defs><style>.cls-1{fill:#c4bf91;}.cls-2{fill:#efefc3;}.cls-11,.cls-3{fill:none;}.cls-3{stroke:#1d1d1b;stroke-linecap:round;stroke-miterlimit:10;stroke-width:3px;}.cls-4{fill:#b2b2b1;}.cls-5{fill:#8f8f8f;}.cls-6{fill:#676865;}.cls-7{fill:#945216;}.cls-8{fill:#f0ecec;}.cls-9{fill:#efebea;}.cls-10{fill:#ab5f17;}.cls-12{fill:#f7bfcf;}.cls-13{fill:#ef8ca8;}.cls-14{fill:#f29cb5;}.cls-15{fill:#a56177;}.cls-16{fill:#c97a8f;}.cls-17{fill:#a86678;}.cls-18{fill:#b0afae;}.cls-19{fill:#cac8c8;}.cls-20{fill:#787977;}.cls-21{fill:#844d5e;}</style></defs><title>hereford</title><g id="Capa_2" data-name="Capa 2"><g id="Capa_1-2" data-name="Capa 1"><path class="cls-1" d="M43,20.54l-6.6,15.35S26.54,28.13,25,17.3s.68-15.36,1.53-15.68,2.2-.48,5.93,6.14A44,44,0,0,0,43,20.54Z"/><path class="cls-2" d="M30.43,13.75c.85,1,3.56,4.68,3.56,4.68s-3.73-6.14-2.88-9.7c.15-.64.36-1.45.56-2.34-3.13-5.22-4.35-5.07-5.13-4.77S24.25,5,24.52,12l3.2,6.6s.68-2.91,1.19-1.62S33,23.77,33,23.77,29.59,12.78,30.43,13.75Z"/><path class="cls-3" d="M43,20.54l-6.6,15.35S26.54,28.13,25,17.3s.68-15.36,1.53-15.68,2.2-.48,5.93,6.14A44,44,0,0,0,43,20.54Z"/><path class="cls-4" d="M45.69,40.34,40.54,52.7s-12.81,3.79-28-5.53c-9.14-5.58-8-11-8-11L9.32,27.8l.2-.35S22.28,23,36.4,31.34a26,26,0,0,1,8.09,7A11,11,0,0,1,45.69,40.34Z"/><path class="cls-5" d="M24.5,40.3c3.2.89,9.84,6.05,11.38,8.9s-1.64,4.23-1.64,4.23l0,0A40.44,40.44,0,0,1,12.5,47.17c-4.13-2.52-6.15-5-7.15-7l7.82-.83C21.81,38.47,21.31,39.42,24.5,40.3Z"/><path class="cls-6" d="M4.48,36.18l.19-.33A38,38,0,0,1,19.5,34.38,30.39,30.39,0,0,1,37,42.87a37.52,37.52,0,0,1,4.87,6.64L40.54,52.7a26.1,26.1,0,0,1-6.32.76l0,0s3.18-1.37,1.64-4.23S21.81,38.47,13.17,39.38l-7.82.83A6.79,6.79,0,0,1,4.48,36.18Z"/><path class="cls-7" d="M15.15,26.6s1.92,2,1.61,3.1-.61,3.55-3,4.17-7,1.32-7,1.32l2.85-7.74Z"/><path class="cls-8" d="M20.42,32.35s-5.45-3-.4-3.22,8.4.49,11.44,3.76-4.23,0-7.1-.33A19.5,19.5,0,0,0,20.42,32.35Z"/><path class="cls-3" d="M45.68,40.35s-1.83-4.63-9.28-9C22.28,23,9.52,27.45,9.52,27.45l-5,8.73s-1.13,5.4,8,11"/><path class="cls-3" d="M6.23,36.51s8.31-7.21,27,3.32c0,0,6.26,4.34,8.72,8.91"/><path class="cls-3" d="M12.5,47.17c15.23,9.32,28,5.53,28,5.53"/><path class="cls-9" d="M117.35,24.36c-5.76-5.52-28.56-13.2-59.52-18.24,0,0-11-2.4-15.12,7.92s-7.44,23-16.56,38.16c-1.87,3.1-3.69,5.87-5.44,8.48,10,2,32.06,6.61,43.36,9.52C79,74,94.31,78.6,109.19,88.44c5,3.29,8.69,5.64,11.43,7.31,2.36-10.41,4.49-20.29,5.13-26C127,58.92,123.11,29.88,117.35,24.36Z"/><path class="cls-7" d="M112.66,21.22l-4.19,5.06s2.64-3.36-.24,16.32c-2.67,18.24-6,38.54-6.42,41.4,2.47,1.36,4.93,2.82,7.38,4.44,5,3.29,8.69,5.64,11.43,7.31,2.36-10.41,4.49-20.29,5.13-26,1.2-10.8-2.64-39.84-8.4-45.36A21.56,21.56,0,0,0,112.66,21.22Z"/><path class="cls-10" d="M117.35,24.36c-5.76-5.52-28.56-13.2-59.52-18.24,0,0-8.46-1.83-13.3,4.62,4.64-.14,12.41-.12,18.1,1.14,8.64,1.92,46.8,17.52,46.8,17.52s5.28,1.44,8.16-2.64a5.36,5.36,0,0,0,.63-1.34A6.85,6.85,0,0,0,117.35,24.36Z"/><path class="cls-7" d="M30.27,46.81,22,61.94s34.13,7.74,37.23,8.78,34.94,10.4,34.94,10.4l-1.61-8.19s4.53-3.79,4.08-9.49-.24-10,1.36-13.19,2.13-5.67-.75-10.22l-.86-1c-.51-.58-.27-4.54-2.16-7.91-2.75-4.92-10.11-5.88-12-3.87s-3.92,3.95-5.09,3.68c-1.55-.35-4.12-2.72-6.55-1.58s-3.69,5-2.68,7.33,1.87,3.37-1.13,8.69S61.47,53.68,63,56.71s2.05,2.53-.08,7-4.55,5.13-4.55,5.13-13.81-.82-20-7.75A39.61,39.61,0,0,1,30.27,46.81Z"/><path class="cls-11" d="M64.07,70.2c-11.3-2.91-33.38-7.49-43.36-9.52C13.93,70.78,8.18,78.37,4.31,92.76a80.43,80.43,0,0,0-1.92,33.12s8.4,14.4,30.24,20.88,27.84,8.16,42.72,9.6,30.24-2.64,30.24-2.64A256.09,256.09,0,0,0,114.71,122c1.57-7.53,3.83-17.11,5.91-26.29-2.74-1.67-6.45-4-11.43-7.31C94.31,78.6,79,74,64.07,70.2Z"/><path class="cls-12" d="M64.07,70.2c-11.3-2.91-33.38-7.49-43.36-9.52C13.93,70.78,8.18,78.37,4.31,92.76a80.43,80.43,0,0,0-1.92,33.12s8.4,14.4,30.24,20.88,27.84,8.16,42.72,9.6,30.24-2.64,30.24-2.64A256.09,256.09,0,0,0,114.71,122c1.57-7.53,3.83-17.11,5.91-26.29-2.74-1.67-6.45-4-11.43-7.31C94.31,78.6,79,74,64.07,70.2Z"/><path class="cls-11" d="M117.35,24.36c-5.76-5.52-28.56-13.2-59.52-18.24,0,0-11-2.4-15.12,7.92s-7.44,23-16.56,38.16c-1.87,3.1-3.69,5.87-5.44,8.48,10,2,32.06,6.61,43.36,9.52C79,74,94.31,78.6,109.19,88.44c5,3.29,8.69,5.64,11.43,7.31,2.36-10.41,4.49-20.29,5.13-26C127,58.92,123.11,29.88,117.35,24.36Z"/><path class="cls-13" d="M32.63,146.76c21.84,6.48,27.84,8.16,42.72,9.6s30.24-2.64,30.24-2.64A256.09,256.09,0,0,0,114.71,122c1.57-7.53,3.83-17.11,5.91-26.29-2.74-1.67-6.45-4-11.43-7.31-2.45-1.62-4.91-3.08-7.38-4.44a86,86,0,0,1-1.74,25.8C97,124.44,92.39,134.28,86.63,135A96.39,96.39,0,0,1,36,128C12,117.72,7,106.92,7,106.92s-1.44,13.44-.24,17c.6,1.81.48,4.77.93,8.33A58.4,58.4,0,0,0,32.63,146.76Z"/><path class="cls-14" d="M43,65.34l-2.91-.18s-8.88-1.92-15.84,3.6-11,14.88-13.44,22.08S7,102.36,7,106.92s4.32,16.32,22.8,23.28S80.63,145.8,90.23,140s11.52-17.76,12.72-27.36,2.64-23.76,2.16-26.64l0-.16c-13.59-8.1-27.5-12.19-41-15.68C58.67,68.81,50.81,67,43,65.34Z"/><path class="cls-12" d="M89.51,78.12S105,94.17,99,114.33c0,0,4.23-12,3-24.21L101.81,84A128.29,128.29,0,0,0,89.51,78.12Z"/><path class="cls-12" d="M26.78,84.27s-.63-3.78,2.88-3.33a17.64,17.64,0,0,1,9.63,5c3.59,3.37,4.68,5.94,3.33,6.39S40.1,91,39.74,90.57,26.78,84.27,26.78,84.27Z"/><path class="cls-12" d="M78.8,94.53s2.07-2.7-.63-2.88-5.67-1-10.53,1.8-7.74,7.11-7.2,8.82,1.57,1.78,2.43,1S65.39,98,69.8,96.33A33.4,33.4,0,0,1,78.8,94.53Z"/><path class="cls-15" d="M114.71,122c1.57-7.53,3.83-17.11,5.91-26.29-1.68-1-3.72-2.29-6.18-3.88-.31,3.25-1,8.92-2.37,17.45-2.4,14.64-8.64,33.12-10.08,35.76s-2.64,3.36-9.6,3.84a119.67,119.67,0,0,1-45.12-4.56C25,137.88,15.35,129.48,7.19,124.92a12,12,0,0,0-5.2-1.8c.2,1.77.4,2.76.4,2.76s8.4,14.4,30.24,20.88,27.84,8.16,42.72,9.6,30.24-2.64,30.24-2.64A256.09,256.09,0,0,0,114.71,122Z"/><path class="cls-16" d="M35,86s-8.16-5-8.16.48c0,4.11.73,9,3.84,10.8s6,2.16,8.16.48C41.42,95.82,41.75,90.36,35,86Z"/><path class="cls-16" d="M80.11,97.69a2.84,2.84,0,0,0-2.45-3,17.94,17.94,0,0,0-7.35.75c-5,1.44-8.48,6.85-6.84,9s4,3.51,8.52,1.83C77.43,104.19,79.75,102,80.11,97.69Z"/><path class="cls-17" d="M37.58,94.53s-4.77-.09-6.48-3.15a11.4,11.4,0,0,1-1-6.84s5.13,2.25,7,4.86S39.56,93.9,37.58,94.53Z"/><path class="cls-17" d="M78.78,95.82s1.15,1.29,1,2.2-1.73-.36-2.64-.5-1.1-.3-2,.47-1.14,2.22-4.27,2.84a25.41,25.41,0,0,1-5.65.47s.73-3.37,2.3-4.35a22.47,22.47,0,0,1,7.18-2.18A13.1,13.1,0,0,1,78.78,95.82Z"/><path class="cls-3" d="M57.83,6.12h0s-11-2.4-15.12,7.92-7.44,23-16.56,38.16S9.18,74.65,4.31,92.76a80.43,80.43,0,0,0-1.92,33.12s8.4,14.4,30.24,20.88,27.84,8.16,42.72,9.6,30.24-2.64,30.24-2.64A256.09,256.09,0,0,0,114.71,122c3.36-16.08,9.84-41.52,11-52.32s-2.64-39.84-8.4-45.36S88.79,11.16,57.83,6.12Z"/><path class="cls-1" d="M118,30.23A31.66,31.66,0,0,0,132.28,28c7.62-3.07,11.52-7.11,13.38-6.3s1.87,2.58,0,9-10,14.39-13.21,16-9.32,2.75-9.32,2.75-6.33-6.7-6.95-9S118,30.23,118,30.23Z"/><path class="cls-2" d="M145.66,21.67c-1.56-.68-4.57,2-10,4.77a13.37,13.37,0,0,1-4.75,4.44c-5.42,2.91-9,4-8.3,3.88s9.66-1.94,9.66-1.94-9.32,5.66-7,5.82,14.23-7.27,15.08-7.92-5.25,6.79-5.25,6.79-6.95,5.5-5.76,5.33,4.91,1.94,12-5.65c.93-1,1.79-1.89,2.59-2.71a17.61,17.61,0,0,0,1.64-3.76C147.53,24.25,147.53,22.47,145.66,21.67Z"/><path class="cls-3" d="M118,30.23A31.66,31.66,0,0,0,132.28,28c7.62-3.07,11.52-7.11,13.38-6.3s1.87,2.58,0,9-10,14.39-13.21,16-9.32,2.75-9.32,2.75-5.93-2.67-7-8.4C114.62,33.41,118,30.23,118,30.23Z"/><path class="cls-7" d="M112.46,29.9,109.73,44s-5.6-1.15-6-4.6,1.58-3.44,1.43-5.6-2-5.17,1.87-5.74S112.46,29.9,112.46,29.9Z"/><path class="cls-18" d="M144.22,62.79c-.54-1.8-6.3-5-12.06-6.84s-13.5-.18-13.5-.18-.54-.54-2.34-2.16a17.1,17.1,0,0,0-3.23-2.11,11.27,11.27,0,0,0-2,1.21L109.84,66s9.54,9.36,27.36,8.28c10.69-.65,12.24-5.94,12.24-5.94l-.35-9.67C147.49,60.84,144.6,64.08,144.22,62.79Z"/><path class="cls-8" d="M118.66,55.77s7.74-1.62,13.5.18,11.52,5,12.06,6.84c.38,1.29,3.27-1.95,4.87-4.09v-.41s-9.18-9.9-25.56-9.18a26.27,26.27,0,0,0-10.43,2.39,17.1,17.1,0,0,1,3.23,2.11C118.12,55.23,118.66,55.77,118.66,55.77Z"/><path class="cls-19" d="M129.82,62.61c-3.24-.72-11.52.72-14.22,2.52s-.54,4.5-.54,4.5v0a40.36,40.36,0,0,0,22.13,4.64c4.82-.29,7.78-1.53,9.57-2.8l-6.51-4.4C133.06,62.25,133.06,63.33,129.82,62.61Z"/><path class="cls-20" d="M149.44,68.37l0-.38A37.8,37.8,0,0,0,137,59.73,30.35,30.35,0,0,0,117.58,59a37.57,37.57,0,0,0-7.42,3.59L109.84,66a26,26,0,0,0,5.23,3.64v0s-2.16-2.7.54-4.5,17.46-2.88,24.66,2l6.51,4.4A6.81,6.81,0,0,0,149.44,68.37Z"/><path class="cls-3" d="M111.1,52.71s3.79-3.22,12.42-3.6c16.38-.72,25.56,9.18,25.56,9.18l.36,10.08s-1.55,5.29-12.24,5.94"/><path class="cls-3" d="M137.2,74.31C119.38,75.39,109.84,66,109.84,66"/><path class="cls-3" d="M147.74,67.83s-4-10.26-25.38-9.72c0,0-7.56.9-11.88,3.78"/><path class="cls-21" d="M35,86s-4.73-2.92-7-1.87c0,.28.34.76,2,1.45,3,1.27,5.58,3,6.93,4.95s2.06,5.73,2.9,6.09C41.34,94.17,40.72,89.7,35,86Z"/><path class="cls-21" d="M77.66,94.65a17.94,17.94,0,0,0-7.35.75c-5,1.44-8.48,6.85-6.84,9,.14.18.28.36.43.53l.05,0a15.51,15.51,0,0,1,2.61-5.76c1.36-1.56,6-3.24,8.73-3.24a6.47,6.47,0,0,1,4.32,1.62l.5.22v0A2.8,2.8,0,0,0,79.73,96,2.89,2.89,0,0,0,77.66,94.65Z"/></g></g></svg>