<svg xmlns="http://www.w3.org/2000/svg" viewBox="0 0 150.94 199.06"><defs><style>.cls-1{fill:#c4bf91;}.cls-2{fill:#efefc3;}.cls-19,.cls-3,.cls-9{fill:none;}.cls-19,.cls-3{stroke:#1d1d1b;stroke-linecap:round;stroke-width:3px;}.cls-18,.cls-3{stroke-miterlimit:10;}.cls-4{fill:#6c3b10;}.cls-5{fill:#5d3411;}.cls-18,.cls-6{fill:#512e12;}.cls-7{fill:#ab5f17;}.cls-8{fill:#955216;}.cls-10{fill:#f7bfcf;}.cls-11{fill:#ef8ca8;}.cls-12{fill:#f29cb5;}.cls-13{fill:#a56177;}.cls-14{fill:#c97a8f;}.cls-15{fill:#a86678;}.cls-16{fill:#7e4312;}.cls-17{fill:#844d5e;}.cls-18{stroke:#512e12;stroke-width:2px;}.cls-19{stroke-linejoin:round;}.cls-20{fill:#b56f23;}</style></defs><title>highland</title><g id="Capa_2" data-name="Capa 2"><g id="Capa_1-2" data-name="Capa 1"><path class="cls-1" d="M43,61.43l-6.6,15.36S26.54,69,25,58.2s.68-15.36,1.53-15.68,2.2-.49,5.93,6.14A43.89,43.89,0,0,0,43,61.43Z"/><path class="cls-2" d="M30.43,54.64c.85,1,3.56,4.69,3.56,4.69s-3.73-6.14-2.88-9.7c.15-.64.36-1.45.56-2.35-3.13-5.21-4.23-2.63-5-2.33s-2.41.91-2.14,7.94l3.2,6.6s.68-2.91,1.19-1.62S33,64.66,33,64.66,29.59,53.67,30.43,54.64Z"/><path class="cls-3" d="M43,61.43l-6.6,15.36S26.54,69,25,58.2s1-13.89,1.89-14.21,1.84-2,5.57,4.67A43.89,43.89,0,0,0,43,61.43Z"/><path class="cls-4" d="M45.69,81.24,40.54,93.6s-12.81,3.79-28-5.53c-9.14-5.59-8-11-8-11L9.32,68.7l.2-.35s12.76-4.44,26.88,3.89a25.91,25.91,0,0,1,8.09,7A10.62,10.62,0,0,1,45.69,81.24Z"/><path class="cls-5" d="M24.5,81.2c3.2.88,9.84,6,11.38,8.9s-1.64,4.22-1.64,4.22l0,0A40.5,40.5,0,0,1,12.5,88.07c-4.13-2.52-6.15-5-7.15-7l7.82-.83C21.81,79.36,21.31,80.31,24.5,81.2Z"/><path class="cls-6" d="M4.48,77.08l.19-.33A38,38,0,0,1,19.5,75.28,30.33,30.33,0,0,1,37,83.76a37.89,37.89,0,0,1,4.87,6.65l-1.33,3.18a25.49,25.49,0,0,1-6.32.76l0,0S37.42,93,35.88,90.1,21.81,79.36,13.17,80.27l-7.82.83A6.76,6.76,0,0,1,4.48,77.08Z"/><path class="cls-7" d="M20.42,73.25S15,70.21,20,70s8.4.49,11.44,3.77-4.23,0-7.1-.33A18.51,18.51,0,0,0,20.42,73.25Z"/><path class="cls-3" d="M45.68,81.24s-1.83-4.62-9.28-9C22.28,63.91,9.52,68.35,9.52,68.35l-5,8.73s-1.13,5.4,8,11"/><path class="cls-3" d="M6.23,77.4s8.31-7.2,27,3.33c0,0,6.26,4.34,8.72,8.91"/><path class="cls-3" d="M12.5,88.07c15.23,9.31,28,5.52,28,5.52"/><path class="cls-8" d="M117.35,65.26C111.59,59.74,88.79,52.06,57.83,47c0,0-11-2.4-15.12,7.92S35.27,78,26.15,93.1c-1.87,3.1-3.69,5.87-5.44,8.47,10,2,32.06,6.61,43.36,9.53,14.88,3.84,30.24,8.4,45.12,18.24,5,3.29,8.69,5.64,11.43,7.31,2.36-10.41,4.49-20.29,5.13-26C127,99.82,123.11,70.78,117.35,65.26Z"/><path class="cls-4" d="M116.75,76.68c-1.4-.52-2.43.42-3.51.93a17.17,17.17,0,0,0-5,3.8,2.92,2.92,0,0,1-3.14,1c.29-2,2.16-2.68,3.39-3.88A18.23,18.23,0,0,1,115,74.35c.85-.31,1.11-.13,1.27.61A5.77,5.77,0,0,1,116.75,76.68Z"/><path class="cls-9" d="M112.66,62.11c-2.1,2.53-4.19,5.07-4.19,5.07s2.64-3.36-.24,16.32c-2.67,18.24-6,38.53-6.42,41.4,2.47,1.35,4.93,2.82,7.38,4.44,5,3.29,8.69,5.64,11.43,7.31,2.36-10.41,4.49-20.29,5.13-26,1.2-10.8-2.64-39.84-8.4-45.36A21.54,21.54,0,0,0,112.66,62.11Z"/><path class="cls-9" d="M64.07,111.1c-11.3-2.92-33.38-7.49-43.36-9.53-6.78,10.1-12.53,17.69-16.4,32.09a80.43,80.43,0,0,0-1.92,33.12s8.4,14.4,30.24,20.88,27.84,8.16,42.72,9.6,30.24-2.64,30.24-2.64a256.09,256.09,0,0,0,9.12-31.68c1.57-7.53,3.83-17.12,5.91-26.29-2.74-1.67-6.45-4-11.43-7.31C94.31,119.5,79,114.94,64.07,111.1Z"/><path class="cls-10" d="M64.07,111.1c-11.3-2.92-33.38-7.49-43.36-9.53-6.78,10.1-12.53,17.69-16.4,32.09a80.43,80.43,0,0,0-1.92,33.12s8.4,14.4,30.24,20.88,27.84,8.16,42.72,9.6,30.24-2.64,30.24-2.64a256.09,256.09,0,0,0,9.12-31.68c1.57-7.53,3.83-17.12,5.91-26.29-2.74-1.67-6.45-4-11.43-7.31C94.31,119.5,79,114.94,64.07,111.1Z"/><path class="cls-9" d="M117.35,65.26C111.59,59.74,88.79,52.06,57.83,47c0,0-11-2.4-15.12,7.92S35.27,78,26.15,93.1c-1.87,3.1-3.69,5.87-5.44,8.47,10,2,32.06,6.61,43.36,9.53,14.88,3.84,30.24,8.4,45.12,18.24,5,3.29,8.69,5.64,11.43,7.31,2.36-10.41,4.49-20.29,5.13-26C127,99.82,123.11,70.78,117.35,65.26Z"/><path class="cls-11" d="M32.63,187.66c21.84,6.48,27.84,8.16,42.72,9.6s30.24-2.64,30.24-2.64a256.09,256.09,0,0,0,9.12-31.68c1.57-7.53,3.83-17.12,5.91-26.29-2.74-1.67-6.45-4-11.43-7.31-2.45-1.62-4.91-3.09-7.38-4.44a86,86,0,0,1-1.74,25.8c-3.12,14.64-7.68,24.48-13.44,25.2a96.39,96.39,0,0,1-50.64-7C12,158.62,7,147.82,7,147.82s-1.44,13.44-.24,17c.6,1.8.48,4.77.93,8.33A58.6,58.6,0,0,0,32.63,187.66Z"/><path class="cls-12" d="M43,106.24c-1.84-.13-2.91-.18-2.91-.18s-8.88-1.92-15.84,3.6-11,14.88-13.44,22.08S7,143.26,7,147.82s4.32,16.32,22.8,23.28,50.88,15.6,60.48,9.84,11.52-17.76,12.72-27.36,2.64-23.76,2.16-26.64l0-.17c-13.59-8.09-27.5-12.19-41-15.67C58.67,109.7,50.81,107.93,43,106.24Z"/><path class="cls-10" d="M89.51,119s15.45,16,9.45,36.21c0,0,4.23-12,3-24.21l-.18-6.12A128.29,128.29,0,0,0,89.51,119Z"/><path class="cls-10" d="M26.78,125.17s-.63-3.78,2.88-3.33a17.64,17.64,0,0,1,9.63,5c3.59,3.36,4.68,5.94,3.33,6.39s-2.52-1.35-2.88-1.8S26.78,125.17,26.78,125.17Z"/><path class="cls-10" d="M78.8,135.43s2.07-2.7-.63-2.88-5.67-1-10.53,1.8-7.74,7.11-7.2,8.82,1.57,1.78,2.43,1,2.52-5.31,6.93-6.93A33.4,33.4,0,0,1,78.8,135.43Z"/><path class="cls-13" d="M114.71,162.94c1.57-7.53,3.83-17.12,5.91-26.29-1.68-1-3.72-2.3-6.18-3.88-.31,3.25-1,8.91-2.37,17.45-2.4,14.64-8.64,33.12-10.08,35.76s-2.64,3.36-9.6,3.84a119.67,119.67,0,0,1-45.12-4.56C25,178.78,15.35,170.38,7.19,165.82A11.78,11.78,0,0,0,2,164c.2,1.77.4,2.76.4,2.76s8.4,14.4,30.24,20.88,27.84,8.16,42.72,9.6,30.24-2.64,30.24-2.64A256.09,256.09,0,0,0,114.71,162.94Z"/><path class="cls-14" d="M35,126.94s-8.16-5-8.16.48c0,4.1.73,9,3.84,10.8s6,2.16,8.16.48C41.42,136.71,41.75,131.26,35,126.94Z"/><path class="cls-14" d="M80.11,138.58a2.83,2.83,0,0,0-2.45-3,17.77,17.77,0,0,0-7.35.75c-5,1.44-8.48,6.84-6.84,9s4,3.51,8.52,1.83C77.43,145.09,79.75,142.91,80.11,138.58Z"/><path class="cls-15" d="M37.58,135.43s-4.77-.09-6.48-3.15a11.4,11.4,0,0,1-1-6.84s5.13,2.25,7,4.86S39.56,134.8,37.58,135.43Z"/><path class="cls-15" d="M78.78,136.71s1.15,1.29,1,2.2-1.73-.36-2.64-.49-1.1-.3-2,.47-1.14,2.22-4.27,2.83a25.1,25.1,0,0,1-5.65.48s.73-3.38,2.3-4.36a23,23,0,0,1,7.18-2.18A13.39,13.39,0,0,1,78.78,136.71Z"/><path class="cls-3" d="M57.83,47h0s-11-2.4-15.12,7.92S35.27,78,26.15,93.1s-17,22.45-21.84,40.56a80.43,80.43,0,0,0-1.92,33.12s8.4,14.4,30.24,20.88,27.84,8.16,42.72,9.6,30.24-2.64,30.24-2.64a256.09,256.09,0,0,0,9.12-31.68c3.36-16.08,9.84-41.52,11-52.32s-2.64-39.84-8.4-45.36S88.79,52.06,57.83,47Z"/><path class="cls-1" d="M118,71.13a31.66,31.66,0,0,0,14.24-2.26c7.62-3.08,11.52-7.12,13.38-6.31s1.87,2.59,0,9-10,14.39-13.21,16-9.32,2.75-9.32,2.75-6.33-6.7-6.95-9.06S118,71.13,118,71.13Z"/><path class="cls-2" d="M143.78,63.67c-1.57-.68-3.37,1.81-8.8,4.53a13.29,13.29,0,0,1-4.75,4.44c-5.42,2.91-9,4-8.3,3.88s9.66-1.94,9.66-1.94-9.32,5.66-7,5.82,14.24-7.27,15.08-7.92-5.25,6.79-5.25,6.79-7,5.49-5.76,5.33,4.91,1.94,12-5.65c.93-1,1.79-1.89,2.59-2.71A17.67,17.67,0,0,0,145,72.48C146.84,66,145.64,64.47,143.78,63.67Z"/><path class="cls-3" d="M118,71.13a31.66,31.66,0,0,0,14.24-2.26c7.62-3.08,9.63-6,11.5-5.2s3.75,1.48,1.88,7.94-10,14.39-13.21,16-9.32,2.75-9.32,2.75-5.93-2.67-7-8.41C114.62,74.3,118,71.13,118,71.13Z"/><path class="cls-16" d="M143.78,103c-1.3-1.43-5-2.58-10-4.12a93.5,93.5,0,0,0-9.6-2.52,2.19,2.19,0,0,0-.11-.27,24,24,0,0,1,8,.81C137.2,98.43,142.24,101.1,143.78,103Z"/><path class="cls-7" d="M149.44,109.27s-1.54,5.29-12.24,5.94c-17.82,1.08-27.36-8.28-27.36-8.28l1.26-13.32a11.27,11.27,0,0,1,2-1.21c1.07.56,12.44-1.05,11.37-1.61,1.94-1,3.09-.79,8.16-.24,7.68.84,16.46,8.64,16.46,8.64v.41Z"/><path class="cls-8" d="M129.82,103.51c-3.24-.72-11.52.72-14.22,2.52s-.54,4.5-.54,4.5v0a40.43,40.43,0,0,0,22.13,4.65c4.82-.3,7.78-1.53,9.57-2.8l-6.51-4.4C133.06,103.15,133.06,104.23,129.82,103.51Z"/><path class="cls-5" d="M149.44,109.27l0-.39a38,38,0,0,0-12.4-8.25,30.35,30.35,0,0,0-19.44-.72,37.64,37.64,0,0,0-7.42,3.58l-.32,3.44a25.79,25.79,0,0,0,5.23,3.63v0s-2.16-2.7.54-4.5,17.46-2.88,24.66,2l6.51,4.4A6.81,6.81,0,0,0,149.44,109.27Z"/><path class="cls-17" d="M35,126.94s-4.73-2.92-7-1.88c0,.29.34.76,2,1.46,3,1.26,5.58,3,6.93,5s2.06,5.72,2.9,6.09C41.34,135.07,40.72,130.6,35,126.94Z"/><path class="cls-17" d="M77.66,135.55a17.77,17.77,0,0,0-7.35.75c-5,1.44-8.48,6.84-6.84,9,.14.18.28.35.43.52H64A15.51,15.51,0,0,1,66.56,140c1.36-1.57,6-3.24,8.73-3.24a6.47,6.47,0,0,1,4.32,1.62l.5.22v0a2.76,2.76,0,0,0-.38-1.66A2.86,2.86,0,0,0,77.66,135.55Z"/><path class="cls-18" d="M111.86,89.63a2.08,2.08,0,0,1-1.6-.8.8.8,0,0,1-.15-.21c-.2-.34-.39-.71-.58-1.07a4.83,4.83,0,0,0-1.74-2.29,15.54,15.54,0,0,1-2.89-2c-.49-.4-1-.78-1.44-1.1a3.17,3.17,0,0,1-2.3-3,18.48,18.48,0,0,0-2.17-7c-.71-1.21-1.06-1.2-1.95-.84a6,6,0,0,0-1.4,1c-.2.17-.4.34-.61.5-1.53,2.61-1.79,5.77-1.93,8.78a2.72,2.72,0,0,1-.77,2.17,2.4,2.4,0,0,1-2,.39A71.09,71.09,0,0,1,78.8,81a1.9,1.9,0,0,1-1.43-1.8C77,73.41,77,68.52,78.2,63.59a3.86,3.86,0,0,0,0-.7h0a1.25,1.25,0,0,0-.77-.41,1.4,1.4,0,0,0-1.1.56c-2.36,2.52-4,5.88-5.2,10.58-.25,1-.48,1.9-1.41,2.22s-1.63-.25-2.37-.85c-.16-.13-.31-.28-.47-.42l-.09-.09a17.55,17.55,0,0,0-6.06-2.71H58.09a10.22,10.22,0,0,0-4,2.2,2.09,2.09,0,0,1-1.68.63,2.31,2.31,0,0,1-1.56-1.21,1.53,1.53,0,0,1,.42-2.07,1.4,1.4,0,0,1,1.46-.08,13.86,13.86,0,0,1,4.69-2.41,1.4,1.4,0,0,1,.41-.06h3.05c.12,0,.23,0,.35,0a20.45,20.45,0,0,1,7.27,3.27h0c1.31-4.83,3.13-8.38,5.71-11.13a4.21,4.21,0,0,1,3.36-1.48,4.33,4.33,0,0,1,3.19,2,1.6,1.6,0,0,1,.29.93,3.27,3.27,0,0,0,0,.44A5.74,5.74,0,0,1,81,64.3c-1,4.37-1.08,8.81-.79,14.07a68.45,68.45,0,0,0,10,2.81c.17-3.43.55-7,2.51-10.12a1.52,1.52,0,0,1,.36-.4c.24-.18.47-.38.7-.57A8.07,8.07,0,0,1,96,68.62c2.31-.94,4.11-.26,5.47,2.07a21.47,21.47,0,0,1,2.56,8.1,1.28,1.28,0,0,0,.12.46h0l.15,0a1.28,1.28,0,0,1,.5.2,21.66,21.66,0,0,1,1.89,1.42A12.82,12.82,0,0,0,109,82.54a7.22,7.22,0,0,1,3.07,3.59c0,.11.11.21.16.32a1.43,1.43,0,0,1,1.53.77,1.52,1.52,0,0,1-.59,2A2.68,2.68,0,0,1,111.86,89.63Z"/><path class="cls-8" d="M56.77,68.84A14.57,14.57,0,0,1,58.23,63c1.62-4,3.38-7.88,6.1-11.09A2.45,2.45,0,0,1,65.65,51c.6-.13,1,.22,1.35.7s0,.87-.19,1.23c-1.41,2.55-2.94,5-4.23,7.65a22.16,22.16,0,0,0-2.64,8.29Z"/><path class="cls-8" d="M42,66.41C46.23,60,51.16,53,54.35,51.65a29.17,29.17,0,0,0-2.68,6,23.42,23.42,0,0,0-1.21,7.5,2.31,2.31,0,0,1-.26,1.19c-.45-.75-1-1.38-1.45-2.17a1.29,1.29,0,0,0-2.07-.53C45.12,64.61,43.54,65.5,42,66.41Z"/><path class="cls-8" d="M79.35,60.89a2.75,2.75,0,0,0-4.51-.33c-3,3.07-4.64,7-5.76,11.24-.38,1.48-.39,1.48-1.54.57-.2-.15-.38-.33-.57-.5a45.74,45.74,0,0,1,1.72-15.72c.24-.78.5-1.56.8-2.31.17-.4.34-1,.77-.91s.36.75.31,1.19c-.11.91-.1,1.82-.21,2.74a5.14,5.14,0,0,0,.71,3.52c.54.86,1,.64,1.34-.17A5.37,5.37,0,0,0,73,57.58c0-3.84-.26-7.71.65-11.49a1.47,1.47,0,0,0-.39-1.22c-2.71-4.11-5.38-8.25-7.76-12.63a16,16,0,0,1-1.39-3.35,3.51,3.51,0,0,1-.21-1.07c0-.56.11-1.17.64-1.37s.75.4,1,.82c1.36,2.71,2.87,5.32,4.41,7.9a3.88,3.88,0,0,0,1.37,1.52c.9.5,1.54,0,1.48-1.1a4.64,4.64,0,0,0-.8-2.12c-1.17-2-2.25-4-3.38-6a53,53,0,0,1-4.78-13.17,58.79,58.79,0,0,1-1.95-9.35A11.74,11.74,0,0,1,63.07,1.5c1.57,4.92,3.27,9.73,5.09,14.49a16.89,16.89,0,0,0,1.26,4.11,48.47,48.47,0,0,0,2.67,7.14c1,2.46,1.91,4.92,2.88,7.36.77,1.92,1.77,3.69,2.66,5.54a4,4,0,0,0,4.17,2.54,2,2,0,0,1-.09,1.72c-.9,1.21-.31,2.77-.95,4,1-.26,2.11-.19,2-1.86a1.63,1.63,0,0,1,.85-1.42,14.29,14.29,0,0,0,5.18-5.84.59.59,0,0,1,.28-.26A7.46,7.46,0,0,0,92,44a26.28,26.28,0,0,1-3.55,5.42c.22.43.5.38.7.26a4.12,4.12,0,0,1,3.3-.13,120.52,120.52,0,0,0,12.25,2.67,35.34,35.34,0,0,0,11.33-.51c.57-.1,1.17-.5,1.73,0a10.48,10.48,0,0,1-2.7,1.48c-1.54.69-1.81,1.58-1,3.19-.9.71-2,.38-2.94.5a67.92,67.92,0,0,1-8,.13,14.83,14.83,0,0,1,3.07,1.3,15.5,15.5,0,0,0,7.2,1.53,36.28,36.28,0,0,1,6.31.7c2,.38,2.57.88,2.37,3.25h-.73a2.08,2.08,0,0,0-3.16.3c-.63.07-1.27.16-1.9.22a2.89,2.89,0,0,1-2.24-.67c-1.17-.93-2.17-.51-2.73,1a.66.66,0,0,1-.79.21c1.72,2.16,2.77,5,3.85,7.79a7.24,7.24,0,0,1,.43,3.14c-.31,1.17-1.09,1.32-2,1.24s-1.45-.55-1.75-1.66c-1.31-5-3.52-9.24-7.34-12.28-.35-.27-.69-.65-1.25-.53-.11.65.31,1,.62,1.37a22.84,22.84,0,0,1,4.12,7.56,2.7,2.7,0,0,1-.22,2c-.74,2-2.11,3.57-2.39,5.75-.89-.16-1.34-.64-1.5-1.77a19.6,19.6,0,0,0-2.45-7.52c-1-1.71-2.11-2.14-3.84-1.46a13,13,0,0,0-2.66,1.86,2.76,2.76,0,0,1-.57-2.16c0-1.48-.26-2.92-.32-4.39a3.07,3.07,0,0,0-.57-1.71c.15,2,.09,3.86.12,5.69A37.48,37.48,0,0,1,92,75.36a5.91,5.91,0,0,1-1,2.47,2,2,0,0,1-2.26.91,2.35,2.35,0,0,1-1.54-1.94,3.42,3.42,0,0,1-.09-1.23,17.65,17.65,0,0,0-.84-6.75,62.4,62.4,0,0,1-1.73-12.19c.19,4.29-.07,8.61.51,12.89a9.44,9.44,0,0,1-.18,3.55c-.14.56-.39.8-1,.77a2.7,2.7,0,0,1-2.59-2.42,28.63,28.63,0,0,1-.51-5c-.05-3.06-.41-6.13.08-9.33C80.19,58.37,80.06,59.77,79.35,60.89Z"/><path class="cls-7" d="M71.11,60.86c-1.26-1-1.29-2.53-1.11-3.94s-.11-2.56.33-3.8A24,24,0,0,0,68,60.63c-.54,3.55-1.12,7.11-.56,10.73,0,.36-.19.47-.45.51a20.39,20.39,0,0,0-7-3c-.44-.55-.18-1.13-.06-1.7A35,35,0,0,1,64.11,57c.74-1.32,1.55-2.58,2.23-3.94.25-.48.56-1,0-1.46a1,1,0,0,0-1.34.09,8.22,8.22,0,0,0-1.78,2.06C60.5,58.25,58,62.89,57,68.37a1.19,1.19,0,0,1-.25.47,12.53,12.53,0,0,0-4.87,2.57c-.51.46-.74.29-1.11-.27-1-1.5-.48-3.17-.59-4.76-.32-5.13,1.18-9.7,3.4-14.06-3.59,3-6.35,6.88-9,10.85A19.54,19.54,0,0,1,42,66.41l-3.76,3.21c-.61.52-1,.28-1.1-.5a19.63,19.63,0,0,1,3.41-15,19.4,19.4,0,0,1,6.29-5.89c.25,0,.5.15.76,0a12.51,12.51,0,0,1,6.54-1.41,3.07,3.07,0,0,0,1-.07c.73-.24,1.82-.3,2-1s-.93-.89-1.44-1.36a39.34,39.34,0,0,1-5.52-5.64,45,45,0,0,0-6.19-6.31c.32-.92.88-.34,1.29-.21a31.92,31.92,0,0,1,7.18,3.64,63.83,63.83,0,0,1,10.87,8.23,4.65,4.65,0,0,0,1.94,1.07c.45.14,1,.5,1.31-.15a1.51,1.51,0,0,0-.24-1.65,17.63,17.63,0,0,0-2.09-2.3c-.63-.56-1.26-1.14-1.92-1.67-.34-.27-.81-.51-.65-1.16,1.11-.94,1.12-2.27.91-3.62a151.67,151.67,0,0,1-1.46-16.38,65.12,65.12,0,0,1,.57-12.72,3.72,3.72,0,0,1,.2-.62,35.4,35.4,0,0,1,1.34,5.78,67.76,67.76,0,0,0,9.09,22.7,3.77,3.77,0,0,1,.81,2.77c-.19,1.05-.79,1.45-1.65,1.05a3.51,3.51,0,0,1-1.56-1.45c-1.67-2.86-3.4-5.68-4.81-8.72-.1-.2-.18-.41-.47-.45a2.13,2.13,0,0,0-.24,2.12,35.11,35.11,0,0,0,4,7.83A82.9,82.9,0,0,0,73.08,44a4,4,0,0,1,.61,3.68c-.7,3.33-.34,6.74-.38,10.12a5,5,0,0,1-.75,2.83C72.11,60.86,71.68,61.31,71.11,60.86Z"/><path class="cls-7" d="M79.35,60.89c.07-1.84,1-3.32,1.72-5,0,.38,0,.75,0,1.12a74.49,74.49,0,0,0,0,8.32c.11,2,.28,4.09.51,6.12a2.37,2.37,0,0,0,2.65,2.07c.36,0,.18-.31.23-.47.63-2.23.1-4.47-.09-6.66-.3-3.6,0-7.17-.08-10.76a3.69,3.69,0,0,1,.6,2.43,71.1,71.1,0,0,0,2.35,13.66,18.94,18.94,0,0,1,.12,4.18c0,1.2.31,2.21,1.42,2.55s1.94-.42,2.41-1.77a25.67,25.67,0,0,0,1.24-7.34,30.22,30.22,0,0,0-.17-7.11c-.06-.31-.19-.82.23-.95s.41.35.58.59a4.79,4.79,0,0,1,.62,2.32c.17,2.09.32,4.17.48,6.26C92.3,73.36,92,76.76,91.8,80.2c0,.92,0,1.32-1.11,1.14a74.4,74.4,0,0,1-11.75-3.15c-.22-.07-.43-.06-.45-.47-.32-5.11-.42-10.19.81-15.2A7.36,7.36,0,0,0,79.35,60.89Z"/><path class="cls-7" d="M104.63,79.34a1.82,1.82,0,0,1,.33-2.22c.63-.66.72-1.78,1.21-2.47,1.83-2.57.19-4.56-.73-6.6a14.66,14.66,0,0,0-2.72-4,4.66,4.66,0,0,1-.57-.87.8.8,0,0,1,0-1c.28-.3.54-.07.78.07a13.91,13.91,0,0,1,4.87,5,25,25,0,0,1,3.7,8.69c.15.84.8.68,1.2.82A1.34,1.34,0,0,0,114.6,76c.14-.15.09-.5.31-.54s.26.24.29.46c0,.4-.13.82.14,1.19a16.23,16.23,0,0,1-.82,8.18,2.22,2.22,0,0,1-1.12,1.21c-.41.22-.81.35-1.19-.08-.88-1.46-1.49-3.22-3.06-4S106.18,80.3,104.63,79.34Z"/><path class="cls-7" d="M117.79,51.79a43.09,43.09,0,0,1-10.3,1.08,55.81,55.81,0,0,1-11.07-1.93c-1.76-.42-3.53-.85-5.29-1.31a1.85,1.85,0,0,0-1.51.32c-.39.24-.77.51-1.25.21-.19-.12-.52,0-.62-.29s.16-.51.34-.67a14.62,14.62,0,0,0,3.18-4.59A.9.9,0,0,1,92,44a37.77,37.77,0,0,1,6.5,3.63A7.59,7.59,0,0,0,102.91,49c2.94,0,5.89-.09,8.83,0a13.76,13.76,0,0,1,6.93,2.06C118.5,51.62,118.13,51.67,117.79,51.79Z"/><path class="cls-8" d="M61.62,38.25c.65,1.09,1.75,1.56,2.6,2.4s1.58,1.69,2.36,2.55a1.94,1.94,0,0,1,.19,2.27c-.4.81-1,.2-1.49.1-1.62-.3-2.62-1.71-3.85-2.71-5.09-4.2-10.38-8-16.4-10.34-.33-.13-.71-.56-1.1-.07l-2.49-2.14a1.13,1.13,0,0,1,.27-.86,14.17,14.17,0,0,1,8.07,1.95,77.19,77.19,0,0,1,9.46,6.09A3,3,0,0,0,61.62,38.25Z"/><path class="cls-7" d="M122.13,63.87c-.09-.23-.4-.3-.32-.67.31-1.43-.5-1.79-1.5-2.09-1.34-.41-2.84,0-4.07-1-.76.86-1.61.09-2.41.15a17.55,17.55,0,0,1-9.21-2.2c-.87-.43-1.78-.74-2.66-1.24,4.05-.15,8.09-.06,12.12-.4,1.49.87,3.17,1,4.73,1.61a28.53,28.53,0,0,1,8.45,5.22,3.94,3.94,0,0,1,.44.58Z"/><path class="cls-7" d="M89.12,39.05a11.75,11.75,0,0,1-5,6.12,2,2,0,0,0-1.05,2.32c.12.51,0,.62-.43.72a2.35,2.35,0,0,0-1.41.72c-.27.34-.49.17-.7-.09s-.5-.52-.13-.9a1,1,0,0,0,.38-.82c-.34-1.68,1-2.88,1-4.44,1.7-1.56,3.07-3.5,4.67-5.18C87,37,87.5,36,88.2,36.21s.59,1.41.85,2.16A3,3,0,0,1,89.12,39.05Z"/><path class="cls-19" d="M127.26,63.29a28.53,28.53,0,0,0-8.45-5.22c-1.56-.6-3.24-.74-4.73-1.61h0c-.8-1.61-.53-2.5,1-3.19a10.48,10.48,0,0,0,2.7-1.48c.34-.12.71-.17.88-.71A13.76,13.76,0,0,0,111.74,49c-2.94-.1-5.89,0-8.83,0a7.59,7.59,0,0,1-4.38-1.35A37.77,37.77,0,0,0,92,44h0a7.46,7.46,0,0,1-2.91-5,3,3,0,0,0-.07-.68c-.26-.75-.17-1.92-.85-2.16S87,37,86.47,37.5c-1.6,1.68-3,3.62-4.67,5.18a4,4,0,0,1-4.17-2.54c-.89-1.85-1.89-3.62-2.66-5.54-1-2.44-1.92-4.9-2.88-7.36a48.47,48.47,0,0,1-2.67-7.14A16.89,16.89,0,0,1,68.16,16c-1.82-4.76-3.52-9.57-5.09-14.49a11.74,11.74,0,0,0-1.23,3.41h0a3.72,3.72,0,0,0-.2.62,65.12,65.12,0,0,0-.57,12.72,151.67,151.67,0,0,0,1.46,16.38c.21,1.35.2,2.68-.91,3.62a3,3,0,0,1-2.38-.76,77.19,77.19,0,0,0-9.46-6.09,14.17,14.17,0,0,0-8.07-1.95,1.13,1.13,0,0,0-.27.86l2.49,2.14h0a45,45,0,0,1,6.19,6.31,39.34,39.34,0,0,0,5.52,5.64c.51.47,1.64.65,1.44,1.36s-1.28.74-2,1a3.07,3.07,0,0,1-1,.07,12.51,12.51,0,0,0-6.54,1.41c-.26.14-.51,0-.76,0a19.4,19.4,0,0,0-6.29,5.89,19.63,19.63,0,0,0-3.41,15c.12.78.49,1,1.1.5L42,66.41c1.57-.91,3.15-1.8,4.71-2.73a1.29,1.29,0,0,1,2.07.53c.42.79,1,1.42,1.45,2.17h0c.11,1.59-.38,3.26.59,4.76.37.56.6.73,1.11.27a12.53,12.53,0,0,1,4.87-2.57h3.17a20.39,20.39,0,0,1,7,3c.19.17.37.35.57.5,1.15.91,1.16.91,1.54-.57,1.12-4.27,2.79-8.17,5.76-11.24a2.75,2.75,0,0,1,4.51.33,7.36,7.36,0,0,1,0,1.63c-1.23,5-1.13,10.09-.81,15.2,0,.41.23.4.45.47a74.4,74.4,0,0,0,11.75,3.15c1.07.18,1.06-.22,1.11-1.14.16-3.44.5-6.84,2.38-9.75h0a13,13,0,0,1,2.66-1.86c1.73-.68,2.81-.25,3.84,1.46a19.6,19.6,0,0,1,2.45,7.52c.16,1.13.61,1.61,1.5,1.77,1.55,1,2.86,2.35,4.52,3.13s2.18,2.49,3.06,4c.38.43.78.3,1.19.08a2.22,2.22,0,0,0,1.12-1.21,16.23,16.23,0,0,0,.82-8.18c-.27-.37-.09-.79-.14-1.19,0-.22,0-.51-.29-.46,0,0,0,0,0,0a7.77,7.77,0,0,0-.44-2.75c-1.08-2.81-2.13-5.63-3.85-7.79a.66.66,0,0,0,.79-.21c.56-1.52,1.56-1.94,2.73-1a2.89,2.89,0,0,0,2.24.67c.63-.06,1.27-.15,1.9-.22a2.08,2.08,0,0,1,3.16-.3h6.3A3.94,3.94,0,0,0,127.26,63.29Z"/><path class="cls-16" d="M103.53,125.77c-.3-3.83,1-9.48,1.65-13.18,1.06-5.77,2.21-11.52,3-17.32.18-1.26.37-2.51.65-3.75A4.46,4.46,0,0,1,112,88.77c1-.76,3.27.27,2.88.47A13,13,0,0,0,111.32,92a2.22,2.22,0,0,0-.72,1.34,1.13,1.13,0,0,0,1.62,1.21,2.66,2.66,0,0,0,1-.63,8.44,8.44,0,0,1,5.53-2.71,34.92,34.92,0,0,1,7.85,0c.11,0,.2.11.3.17-.36.41-.86.33-1.33.34-.75,0-1.51,0-2.26,0-1.89,0-2.7,1.24-3.26,2.74-.31.84.27,1.26,1,1.48a4.54,4.54,0,0,0,2,0,7.12,7.12,0,0,1,2-.12c.35,0,.84,0,.89.53-4.94.37-9.38,2.29-13.79,4.34-.82.37-1.27,1-.83,1.91.53,1.63.19,2.3-1.21,2.41-1.64.52-1.93,1.62-.76,2.93a19.31,19.31,0,0,0,8.7,5.47c1.81.6,3.5,1.54,5.38,2,.56.13.56.48.45,1-.89,4.33-1.74,8.65-2.58,13-.26,1.36-.47,2.74-.67,4.11-.1.67-.44,3.16-1.2,3.19a38.23,38.23,0,0,0-3.15-2.38c-3.82-2.65-7.69-5.22-11.7-7.59C104.16,126.54,103.56,126.43,103.53,125.77Z"/><path class="cls-3" d="M137.2,115.21c-17.82,1.08-27.36-8.28-27.36-8.28"/><path class="cls-3" d="M147.74,108.73s-4-10.26-25.38-9.72c0,0-7.56.9-11.88,3.78"/><path class="cls-3" d="M111.1,93.61s3.79-3.22,12.42-3.6c16.38-.72,25.56,9.18,25.56,9.18l.36,10.08s-1.55,5.29-12.24,5.94"/><path class="cls-20" d="M129.26,95.83s-2.52-1.08-.36-2.16,5.16-.36,9,1.08S142,98.59,142,98.59s-.72,1.2-4.32-.72A21.87,21.87,0,0,0,129.26,95.83Z"/></g></g></svg>