<svg xmlns="http://www.w3.org/2000/svg" viewBox="0 0 125.65 122.53"><defs><style>.cls-1{fill:#53772c;}</style></defs><title>check</title><g id="Capa_2" data-name="Capa 2"><g id="Capa_1-2" data-name="Capa 1"><path class="cls-1" d="M101.43,61.33a40.22,40.22,0,0,1-40.17,40.11l-.75,0c-.56.31-1.13.6-1.71.85a15.86,15.86,0,0,1-12.15,0,15.69,15.69,0,0,1-5.14-3.44L9,66.34A15.85,15.85,0,0,1,26.78,40.69a40.1,40.1,0,0,1,60.46-10l14.94-14.94A61,61,0,1,0,119.75,43Z"/><path class="cls-1" d="M122.56,17.77a10.56,10.56,0,0,0-14.91,0L52.72,72.7l-25-25A10.55,10.55,0,1,0,12.77,62.57l32.5,32.5a10.54,10.54,0,0,0,14.91,0l62.38-62.39A10.54,10.54,0,0,0,122.56,17.77Z"/></g></g></svg>