<svg xmlns="http://www.w3.org/2000/svg" viewBox="0 0 152.56 160.25"><defs><style>.cls-1{fill:#f0eeed;}.cls-2{fill:#969596;}.cls-3,.cls-4{fill:none;}.cls-3{stroke:#1d1d1b;stroke-linecap:round;stroke-miterlimit:10;stroke-width:3px;}.cls-5{fill:#e6d9dc;}.cls-6{fill:#efebea;}.cls-7{fill:#909090;}.cls-8{fill:#c7b3b9;}.cls-9{fill:#d9c5c9;}.cls-10{fill:#fefdfd;}.cls-11{fill:#8c7d82;}.cls-12{fill:#ab9a9e;}.cls-13{fill:#8d7f83;}.cls-14{fill:#716568;}.cls-15{fill:#c4bf91;}.cls-16{fill:#efefc3;}.cls-17{fill:#32352f;}.cls-18{fill:#979696;}.cls-19{fill:#efeaea;}</style></defs><title>brahman</title><g id="Capa_2" data-name="Capa 2"><g id="Capa_1-2" data-name="Capa 1"><path class="cls-1" d="M34.74,38.54S28,31,23,32.3s-4.2,2.16-5.28,9.12a50.56,50.56,0,0,1-4.32,13.44c-.84,2.16-4.92,10-4.32,10.2s9.84-.36,9.84-.36a130.45,130.45,0,0,0,9.24-14C33.3,41.78,34.74,38.54,34.74,38.54Z"/><path class="cls-2" d="M33.42,41.06s-4.2-4.08-7-2.16S23,41.06,21.54,45.74s-5.88,15-5.88,15L13.5,64.82l5.4-.12S30.42,48.86,33.42,41.06Z"/><path class="cls-3" d="M34.74,38.54S28,31,23,32.3s-4.2,2.16-5.28,9.12a50.56,50.56,0,0,1-4.32,13.44c-.84,2.16-4.92,10-4.32,10.2s9.84-.36,9.84-.36a130.45,130.45,0,0,0,9.24-14C33.3,41.78,34.74,38.54,34.74,38.54Z"/><path class="cls-4" d="M64.07,72.29c-11.3-2.92-33.38-7.49-43.36-9.53C13.93,72.86,8.18,80.45,4.31,94.85A80.43,80.43,0,0,0,2.39,128s8.4,14.4,30.24,20.88,27.84,8.16,42.72,9.6,30.24-2.64,30.24-2.64a256.09,256.09,0,0,0,9.12-31.68c1.57-7.54,3.83-17.12,5.91-26.29-2.74-1.67-6.45-4-11.43-7.31C94.31,80.69,79,76.13,64.07,72.29Z"/><path class="cls-5" d="M64.07,72.29c-11.3-2.92-33.38-7.49-43.36-9.53C13.93,72.86,8.18,80.45,4.31,94.85A80.43,80.43,0,0,0,2.39,128s8.4,14.4,30.24,20.88,27.84,8.16,42.72,9.6,30.24-2.64,30.24-2.64a256.09,256.09,0,0,0,9.12-31.68c1.57-7.54,3.83-17.12,5.91-26.29-2.74-1.67-6.45-4-11.43-7.31C94.31,80.69,79,76.13,64.07,72.29Z"/><path class="cls-4" d="M117.35,26.45c-5.76-5.52-28.56-13.2-59.52-18.24,0,0-11-2.4-15.12,7.92s-7.44,23-16.56,38.16c-1.87,3.1-3.69,5.87-5.44,8.47,10,2,32.06,6.61,43.36,9.53,14.88,3.84,30.24,8.4,45.12,18.24,5,3.29,8.69,5.64,11.43,7.31,2.36-10.41,4.49-20.29,5.13-26C127,61,123.11,32,117.35,26.45Z"/><path class="cls-6" d="M117.35,26.45c-5.76-5.52-28.56-13.2-59.52-18.24,0,0-11-2.4-15.12,7.92s-7.44,23-16.56,38.16c-1.87,3.1-3.69,5.87-5.44,8.47,10,2,32.06,6.61,43.36,9.53,14.88,3.84,30.24,8.4,45.12,18.24,5,3.29,8.69,5.64,11.43,7.31,2.36-10.41,4.49-20.29,5.13-26C127,61,123.11,32,117.35,26.45Z"/><path class="cls-7" d="M112.66,23.3c-2.1,2.53-4.19,5.07-4.19,5.07s2.64-3.36-.24,16.32c-2.67,18.24-6,38.53-6.42,41.4,2.47,1.35,4.93,2.82,7.38,4.44,5,3.29,8.69,5.64,11.43,7.31,2.36-10.41,4.49-20.29,5.13-26C127,61,123.11,32,117.35,26.45A21.54,21.54,0,0,0,112.66,23.3Z"/><path class="cls-8" d="M32.63,148.85c21.84,6.48,27.84,8.16,42.72,9.6s30.24-2.64,30.24-2.64a256.09,256.09,0,0,0,9.12-31.68c1.57-7.54,3.83-17.12,5.91-26.29-2.74-1.67-6.45-4-11.43-7.31-2.45-1.62-4.91-3.09-7.38-4.44a86,86,0,0,1-1.74,25.8c-3.12,14.64-7.68,24.48-13.44,25.2a96.39,96.39,0,0,1-50.64-7C12,119.81,7,109,7,109s-1.44,13.44-.24,17c.6,1.8.48,4.76.93,8.33A58.6,58.6,0,0,0,32.63,148.85Z"/><path class="cls-9" d="M43,67.43c-1.84-.13-2.91-.18-2.91-.18s-8.88-1.92-15.84,3.6-11,14.88-13.44,22.08S7,104.45,7,109s4.32,16.32,22.8,23.28,50.88,15.6,60.48,9.84,11.52-17.76,12.72-27.36,2.64-23.76,2.16-26.64l0-.17c-13.59-8.09-27.5-12.19-41-15.67C58.67,70.89,50.81,69.12,43,67.43Z"/><path class="cls-5" d="M89.51,80.21S105,96.26,99,116.42c0,0,4.23-12,3-24.21l-.18-6.12A128.29,128.29,0,0,0,89.51,80.21Z"/><path class="cls-5" d="M26.78,86.36s-.63-3.78,2.88-3.33a17.64,17.64,0,0,1,9.63,5C42.88,91.43,44,94,42.62,94.46s-2.52-1.35-2.88-1.8S26.78,86.36,26.78,86.36Z"/><path class="cls-5" d="M78.8,96.62s2.07-2.7-.63-2.88-5.67-1-10.53,1.8-7.74,7.11-7.2,8.82,1.57,1.78,2.43,1,2.52-5.31,6.93-6.93A33.4,33.4,0,0,1,78.8,96.62Z"/><path class="cls-10" d="M117.35,26.45c-5.76-5.52-28.56-13.2-59.52-18.24,0,0-8.46-1.84-13.3,4.61,4.64-.13,12.41-.12,18.1,1.15,8.64,1.92,46.8,17.52,46.8,17.52s5.28,1.44,8.16-2.64a5.61,5.61,0,0,0,.63-1.35A6.31,6.31,0,0,0,117.35,26.45Z"/><path class="cls-11" d="M114.71,124.13c1.57-7.54,3.83-17.12,5.91-26.29-1.68-1-3.72-2.3-6.18-3.89-.31,3.26-1,8.92-2.37,17.46-2.4,14.64-8.64,33.12-10.08,35.76s-2.64,3.36-9.6,3.84a119.67,119.67,0,0,1-45.12-4.56C25,140,15.35,131.57,7.19,127A12,12,0,0,0,2,125.2c.2,1.77.4,2.77.4,2.77s8.4,14.4,30.24,20.88,27.84,8.16,42.72,9.6,30.24-2.64,30.24-2.64A256.09,256.09,0,0,0,114.71,124.13Z"/><path class="cls-12" d="M35,88.13s-8.16-5-8.16.48c0,4.1.73,9,3.84,10.8s6,2.16,8.16.48C41.42,97.9,41.75,92.45,35,88.13Z"/><path class="cls-12" d="M80.11,99.77a2.83,2.83,0,0,0-2.45-3,17.77,17.77,0,0,0-7.35.75c-5,1.44-8.48,6.84-6.84,9s4,3.51,8.52,1.83C77.43,106.28,79.75,104.1,80.11,99.77Z"/><path class="cls-13" d="M37.58,96.62s-4.77-.09-6.48-3.15a11.4,11.4,0,0,1-1-6.84s5.13,2.25,7,4.86S39.56,96,37.58,96.62Z"/><path class="cls-13" d="M78.89,98.24s1.08,1.35.9,2.25-1.71-.45-2.61-.63-1.08-.36-2.07.36-1.26,2.16-4.41,2.61A25.4,25.4,0,0,1,65,103s.9-3.33,2.52-4.23A22.75,22.75,0,0,1,74.84,97,13.28,13.28,0,0,1,78.89,98.24Z"/><path class="cls-3" d="M57.83,8.21h0s-11-2.4-15.12,7.92-7.44,23-16.56,38.16S9.18,76.74,4.31,94.85A80.43,80.43,0,0,0,2.39,128s8.4,14.4,30.24,20.88,27.84,8.16,42.72,9.6,30.24-2.64,30.24-2.64a256.09,256.09,0,0,0,9.12-31.68c3.36-16.08,9.84-41.52,11-52.32s-2.64-39.84-8.4-45.36S88.79,13.25,57.83,8.21Z"/><path class="cls-14" d="M35,88.13s-4.73-2.92-7-1.88c0,.29.34.76,2,1.46,3,1.26,5.58,3,6.93,5s2.06,5.72,2.9,6.09C41.34,96.26,40.72,91.79,35,88.13Z"/><path class="cls-14" d="M77.66,96.74a17.77,17.77,0,0,0-7.35.75c-5,1.44-8.48,6.84-6.84,9,.14.18.28.35.43.52H64a15.51,15.51,0,0,1,2.61-5.76c1.36-1.57,6-3.24,8.73-3.24a6.47,6.47,0,0,1,4.32,1.62l.5.22v0a2.76,2.76,0,0,0-.38-1.66A2.86,2.86,0,0,0,77.66,96.74Z"/><path class="cls-15" d="M40.5,22.7l-7,17.1S23,31.16,21.42,19.1,22.14,2,23,1.64s2.34-.54,6.3,6.84A48.34,48.34,0,0,0,40.5,22.7Z"/><path class="cls-16" d="M27.18,15.14c.9,1.08,3.78,5.22,3.78,5.22s-4-6.84-3.06-10.8c.16-.72.37-1.62.59-2.62C25.17,1.14,23.87,1.3,23,1.64S20.61,5.36,20.9,13.19l3.4,7.35s.72-3.24,1.26-1.8,4.32,7.56,4.32,7.56S26.28,14.06,27.18,15.14Z"/><path class="cls-3" d="M40.5,22.7l-7,17.1S23,31.16,21.42,19.1,22.14,2,23,1.64s2.34-.54,6.3,6.84A48.34,48.34,0,0,0,40.5,22.7Z"/><path class="cls-15" d="M120.24,33.5A32.19,32.19,0,0,0,135.36,31c8.1-3.42,12.24-7.92,14.22-7s2,2.88,0,10.08-10.62,16-14,17.82-9.9,3.06-9.9,3.06-6.72-7.47-7.38-10.08S120.24,33.5,120.24,33.5Z"/><path class="cls-16" d="M149.58,24c-1.66-.76-4.86,2.29-10.62,5.31a14.67,14.67,0,0,1-5,4.95c-5.76,3.24-9.54,4.5-8.82,4.32s10.26-2.16,10.26-2.16-9.9,6.3-7.38,6.48,15.12-8.1,16-8.82-5.58,7.56-5.58,7.56-7.38,6.12-6.12,5.94,5.22,2.16,12.78-6.3c1-1.11,1.9-2.1,2.75-3A21,21,0,0,0,149.58,34C151.56,26.84,151.56,24.86,149.58,24Z"/><path class="cls-3" d="M120.24,33.5A32.19,32.19,0,0,0,135.36,31c8.1-3.42,12.24-7.92,14.22-7s2,2.88,0,10.08-10.62,16-14,17.82-9.9,3.06-9.9,3.06-6.3-3-7.47-9.36C116.61,37,120.24,33.5,120.24,33.5Z"/><path class="cls-17" d="M110.94,60.38s1.44.12,1.44,2.64-2.16,9.72-2,12.24.6,6,2.28,7.2,4.92-3.72,6.36-11.88,1.68-12.48-.72-13.32S110.94,60.38,110.94,60.38Z"/><path class="cls-18" d="M137.82,57.14s.36-3.36-.72-4-7.44-2.64-15.6-1.92S111.66,54,111.66,54l-.48,5.76s4.68-1.44,5.64-.36c0,0,1.2-.24.36,4.68s-4.32,16.68-3.72,17.52,13.56,8.64,19.32,10.2l5.76,1.56Z"/><path class="cls-19" d="M137.1,53.18c-1.08-.6-7.44-2.64-15.6-1.92S111.66,54,111.66,54l-.48,5.76s4.68-1.44,5.64-.36c0,0,1.2-.24.36,4.68s-4.32,16.68-3.72,17.52a45.37,45.37,0,0,0,6.08,3.9c.42-3.45,1-8,1.24-10.74.48-4.8,1.2-13.92,1.2-17s7.56-2.52,10.44-1.92c2.05.42,4.29,1.1,5.4,1.44v-.12S138.18,53.78,137.1,53.18Z"/><path class="cls-3" d="M111.18,59.78s4.68-1.44,5.64-.36c0,0,1.2-.24.36,4.68s-4.32,16.68-3.72,17.52,13.56,8.64,19.32,10.2l5.76,1.56-.72-36.24s.36-3.36-.72-4-7.44-2.64-15.6-1.92S111.66,54,111.66,54"/></g></g></svg>