<svg xmlns="http://www.w3.org/2000/svg" viewBox="0 0 48.79 73.08"><defs><style>.cls-1{fill:#1d1d1b;}.cls-2{fill:#706f6f;}</style></defs><title>brahman</title><g id="Capa_2" data-name="Capa 2"><g id="Capa_1-2" data-name="Capa 1"><path class="cls-1" d="M22,65.71a4.53,4.53,0,0,1-.6,6.1,6.42,6.42,0,0,1-4.22,1.27h-8V55.82h7.77A6.38,6.38,0,0,1,21,57a4.36,4.36,0,0,1,.69,5.8,4,4,0,0,1-2.13,1.4A4.05,4.05,0,0,1,22,65.71ZM13.36,62.8h2.75a2.41,2.41,0,0,0,1.59-.46A1.62,1.62,0,0,0,18.25,61a1.66,1.66,0,0,0-.55-1.35,2.41,2.41,0,0,0-1.59-.47H13.36Zm4.73,6.4a1.72,1.72,0,0,0,.58-1.39,1.77,1.77,0,0,0-.6-1.42,2.46,2.46,0,0,0-1.66-.52H13.36v3.81h3.09A2.51,2.51,0,0,0,18.09,69.2Z"/><path class="cls-1" d="M34.16,73.08l-3.59-6.52h-1v6.52h-4.2V55.82h7a7.72,7.72,0,0,1,3.48.71A4.88,4.88,0,0,1,38,58.48a5.42,5.42,0,0,1,.72,2.77,5.11,5.11,0,0,1-1,3.07,5.22,5.22,0,0,1-2.86,1.92l4,6.84Zm-4.6-9.49h2.61A2.37,2.37,0,0,0,33.9,63a2.16,2.16,0,0,0,.58-1.6,2.11,2.11,0,0,0-.58-1.55,2.42,2.42,0,0,0-1.73-.56H29.56Z"/><circle class="cls-2" cx="24.39" cy="24.39" r="24.39"/></g></g></svg>