<svg xmlns="http://www.w3.org/2000/svg" viewBox="0 0 76.97 76.97"><defs><style>.cls-1{fill:#689331;}</style></defs><title>edad</title><g id="Capa_2" data-name="Capa 2"><g id="Capa_1-2" data-name="Capa 1"><path class="cls-1" d="M38.49,0A38.49,38.49,0,1,0,77,38.49,38.49,38.49,0,0,0,38.49,0ZM61.71,38.81a12.65,12.65,0,0,1-2.9,4.55h0L39.16,62.88a.59.59,0,0,1-.85,0L19.37,44.07A13.93,13.93,0,0,1,18,42.69,12.42,12.42,0,1,1,38.71,29.47a12.42,12.42,0,0,1,23.73,5.12A12.56,12.56,0,0,1,61.71,38.81Z"/></g></g></svg>