<?xml version="1.0" encoding="utf-8"?>
<!-- Generator: Adobe Illustrator 24.0.0, SVG Export Plug-In . SVG Version: 6.00 Build 0)  -->
<svg version="1.1" id="Capa_1" xmlns="http://www.w3.org/2000/svg" xmlns:xlink="http://www.w3.org/1999/xlink" x="0px" y="0px"
	 viewBox="0 0 77 77" style="enable-background:new 0 0 77 77;" xml:space="preserve">
<style type="text/css">
	.st0{fill:#FFFFFF;}
</style>
<title>femenino</title>
<g id="Capa_2_1_">
	<g id="Capa_1-2">
		<path class="st0" d="M38.5,15.5c-7.2,0-13,5.8-13,13s5.8,13,13,13s13-5.8,13-13S45.7,15.5,38.5,15.5z"/>
		<path class="st0" d="M38.5,0C17.2,0,0,17.3,0,38.5S17.3,77,38.5,77C59.8,77,77,59.7,77,38.5C77,17.2,59.8,0,38.5,0
			C38.5,0,38.5,0,38.5,0z M42.7,49.4v6.2h4.3c2.3,0,4.2,1.9,4.2,4.2S49.2,64,46.9,64c0,0,0,0,0,0h-4.3v1.7c-0.1,2.3-2.1,4.1-4.4,4
			c-2.1-0.1-3.9-1.8-4-4V64h-4.3c-2.3,0-4.2-1.9-4.2-4.2c0-2.3,1.9-4.2,4.2-4.2h4.3v-6.2c-11.6-2.3-19.1-13.5-16.8-25.1
			S31.1,5.3,42.7,7.6s19.1,13.5,16.8,25.1C57.7,41.1,51.1,47.8,42.7,49.4z"/>
	</g>
</g>
</svg>
