<svg xmlns="http://www.w3.org/2000/svg" viewBox="0 0 76.97 76.97"><defs><style>.cls-1{fill:#689331;}</style></defs><title>femenino</title><g id="Capa_2" data-name="Capa 2"><g id="Capa_1-2" data-name="Capa 1"><path class="cls-1" d="M38.49,15.51a13,13,0,1,0,13,13A13,13,0,0,0,38.49,15.51Z"/><path class="cls-1" d="M38.49,0A38.49,38.49,0,1,0,77,38.49,38.49,38.49,0,0,0,38.49,0Zm4.16,49.44v6.21H46.9a4.16,4.16,0,1,1,0,8.32H42.65v1.66a4.17,4.17,0,0,1-8.33,0V64H30.07a4.16,4.16,0,0,1,0-8.32h4.25V49.44a21.34,21.34,0,1,1,8.33,0Z"/></g></g></svg>