<svg xmlns="http://www.w3.org/2000/svg" viewBox="0 0 48.79 74.83"><defs><style>.cls-1{fill:#1d1d1b;}.cls-2{fill:#fff;}.cls-3{fill:#010101;}.cls-4{fill:#aa6c15;}</style></defs><title>hereford</title><g id="Capa_2" data-name="Capa 2"><g id="Capa_1-2" data-name="Capa 1"><path class="cls-1" d="M23.91,57.57V74.83h-4.2V67.72H13.17v7.11H9V57.57h4.21v6.76h6.54V57.57Z"/><path class="cls-1" d="M31.14,60.94v3.49h5.63v3.24H31.14v3.79h6.37v3.37H26.94V57.57H37.51v3.37Z"/><circle class="cls-2" cx="24.39" cy="24.39" r="24.39"/><path class="cls-3" d="M32.54,47.38a24.22,24.22,0,0,1-11.43,1.18"/><path class="cls-4" d="M31.92,38.82c-3-.2-3.25-1.6-6.09-2.58-3-1-7.41.9-6.2,8.25a11.1,11.1,0,0,0,1.48,4.07,24.22,24.22,0,0,0,11.43-1.18c.66-.56,7.55-4.2,9-5.67a4.38,4.38,0,0,0-.43-1.2C39.76,37.82,34.29,39,31.92,38.82Z"/><path class="cls-4" d="M12.12,30.76c2.26,1,4.53,1.76,6.46.17,1.65-1.36,1-4.62-1.62-6.4A9.24,9.24,0,0,1,14,21.91c-1.28-2.16.44-4,.23-6.8-.34-4.53-5.22-4.59-6.44-1.24-.92,2.5,1.11,4.73-.09,7.85-.45,1.18-3,2-4.69,3.19-2.48,1.66-2,6.21,1.83,6.31C7.2,31.27,8.79,29.27,12.12,30.76Z"/><path class="cls-4" d="M15.67,43.72A2.49,2.49,0,0,0,14,42.07a13.87,13.87,0,0,0-6.89-.46,24.12,24.12,0,0,0,7.72,5.22A3.24,3.24,0,0,0,15.67,43.72Z"/><path class="cls-4" d="M32.29,9.43c-2.3,1.39,1.48,5-.06,8.85-1.21,3-5.46,3.65-6.19,7.87-.47,2.77,1.08,8.2,7.59,7.21,1.55-.23,2.59-1.41,3.55-2.45,3.17-3.46,7.39-.29,11.13-1.89h0a24.25,24.25,0,0,0-.63-11.76C43.73,11.6,36.81,6.7,32.29,9.43Z"/><path class="cls-4" d="M21.31,8.47c3.37-1.09,5.35.51,8.45-1.65a2.43,2.43,0,0,0,1.09-2.38c-.16-1.39-1.8-4.88-5-2.56-3.55,2.56-5.7,2-8.93,4.9a2.34,2.34,0,0,0-.66,3C17.2,11.46,19.09,9.19,21.31,8.47Z"/></g></g></svg>