<svg xmlns="http://www.w3.org/2000/svg" viewBox="0 0 150.96 166.62"><defs><style>.cls-1{fill:#c4bf91;}.cls-2{fill:#efefc3;}.cls-19,.cls-3,.cls-9{fill:none;}.cls-19,.cls-3{stroke:#1d1d1b;stroke-linecap:round;stroke-width:3px;}.cls-18,.cls-3{stroke-miterlimit:10;}.cls-4{fill:#6c3b10;}.cls-5{fill:#5d3411;}.cls-18,.cls-6{fill:#512e12;}.cls-7{fill:#ab5f17;}.cls-8{fill:#955216;}.cls-10{fill:#f7bfcf;}.cls-11{fill:#ef8ca8;}.cls-12{fill:#f29cb5;}.cls-13{fill:#a56177;}.cls-14{fill:#c97a8f;}.cls-15{fill:#a86678;}.cls-16{fill:#7e4312;}.cls-17{fill:#844d5e;}.cls-18{stroke:#512e12;stroke-width:2px;}.cls-19{stroke-linejoin:round;}.cls-20{fill:#b56f23;}</style></defs><title>highland</title><g id="Capa_2" data-name="Capa 2"><g id="Capa_1-2" data-name="Capa 1"><g id="Capa_2-2" data-name="Capa 2"><g id="Capa_1-2-2" data-name="Capa 1-2"><path class="cls-1" d="M43,29l-6.6,15.36S26.55,36.55,25,25.75s.68-15.36,1.53-15.68,2.2-.49,5.93,6.14A43.86,43.86,0,0,0,43,29Z"/><path class="cls-2" d="M30.44,22.19c.85,1,3.56,4.69,3.56,4.69s-3.73-6.14-2.88-9.7c.15-.64.36-1.45.56-2.35-3.13-5.21-4.23-2.63-5-2.33s-2.41.91-2.14,7.94l3.2,6.6s.68-2.91,1.19-1.62S33,32.21,33,32.21,29.6,21.22,30.44,22.19Z"/><path class="cls-3" d="M43,29l-6.6,15.36S26.55,36.55,25,25.75s1-13.89,1.89-14.21,1.84-2,5.57,4.67A43.86,43.86,0,0,0,43,29Z"/><path class="cls-4" d="M45.7,48.79,40.55,61.15s-12.81,3.79-28-5.53c-9.14-5.59-8-11-8-11l4.78-8.37.2-.35s12.76-4.44,26.88,3.89a25.79,25.79,0,0,1,8.09,7A10.4,10.4,0,0,1,45.7,48.79Z"/><path class="cls-5" d="M24.51,48.75c3.2.88,9.84,6,11.38,8.9s-1.64,4.22-1.64,4.22h0a40.6,40.6,0,0,1-21.74-6.25c-4.13-2.52-6.15-5-7.15-7l7.82-.83C21.82,46.91,21.32,47.86,24.51,48.75Z"/><path class="cls-6" d="M4.49,44.63l.19-.33a38,38,0,0,1,14.83-1.47A30.31,30.31,0,0,1,37,51.31,37.86,37.86,0,0,1,41.88,58l-1.33,3.18a25.42,25.42,0,0,1-6.32.76h0s3.2-1.35,1.66-4.25S21.82,46.91,13.18,47.82l-7.82.83A6.8,6.8,0,0,1,4.49,44.63Z"/><path class="cls-7" d="M20.43,40.8s-5.42-3-.42-3.25,8.4.49,11.44,3.77-4.23,0-7.1-.33A18.38,18.38,0,0,0,20.43,40.8Z"/><path class="cls-3" d="M45.69,48.79s-1.83-4.62-9.28-9C22.29,31.46,9.53,35.9,9.53,35.9l-5,8.73s-1.13,5.4,8,11"/><path class="cls-3" d="M6.24,45s8.31-7.2,27,3.33c0,0,6.26,4.34,8.72,8.91"/><path class="cls-3" d="M12.51,55.62c15.23,9.31,28,5.52,28,5.52"/><path class="cls-8" d="M117.36,32.81c-5.76-5.52-28.56-13.2-59.52-18.26,0,0-11-2.4-15.12,7.92S35.28,45.55,26.16,60.65c-1.87,3.1-3.69,5.87-5.44,8.47,10,2,32.06,6.61,43.36,9.53C79,82.49,94.32,87.05,109.2,96.89c5,3.29,8.69,5.64,11.43,7.31,2.36-10.41,4.49-20.29,5.13-26C127,67.37,123.12,38.33,117.36,32.81Z"/><path class="cls-4" d="M116.76,44.23c-1.4-.52-2.43.42-3.51.93a17.22,17.22,0,0,0-5,3.8,2.93,2.93,0,0,1-3.14,1c.29-2,2.16-2.68,3.39-3.88A18.32,18.32,0,0,1,115,41.9c.85-.31,1.11-.13,1.27.61A5.64,5.64,0,0,1,116.76,44.23Z"/><path class="cls-9" d="M112.67,29.66c-2.1,2.53-4.19,5.07-4.19,5.07s2.64-3.36-.24,16.32c-2.67,18.24-6,38.53-6.42,41.4,2.47,1.35,4.93,2.82,7.38,4.44,5,3.29,8.69,5.64,11.43,7.31,2.36-10.41,4.49-20.29,5.13-26,1.2-10.8-2.64-39.84-8.4-45.36A21.65,21.65,0,0,0,112.67,29.66Z"/><path class="cls-9" d="M64.08,78.65c-11.3-2.92-33.38-7.49-43.36-9.53-6.78,10.1-12.53,17.69-16.4,32.09A80.49,80.49,0,0,0,2.4,134.33s8.4,14.4,30.24,20.88,27.84,8.16,42.72,9.6,30.24-2.64,30.24-2.64a256.32,256.32,0,0,0,9.12-31.68c1.57-7.53,3.83-17.12,5.91-26.29-2.74-1.67-6.45-4-11.43-7.31C94.32,87.05,79,82.49,64.08,78.65Z"/><path class="cls-10" d="M64.08,78.65c-11.3-2.92-33.38-7.49-43.36-9.53-6.78,10.1-12.53,17.69-16.4,32.09A80.49,80.49,0,0,0,2.4,134.33s8.4,14.4,30.24,20.88,27.84,8.16,42.72,9.6,30.24-2.64,30.24-2.64a256.32,256.32,0,0,0,9.12-31.68c1.57-7.53,3.83-17.12,5.91-26.29-2.74-1.67-6.45-4-11.43-7.31C94.32,87.05,79,82.49,64.08,78.65Z"/><path class="cls-9" d="M117.36,32.81c-5.76-5.52-28.56-13.2-59.52-18.26,0,0-11-2.4-15.12,7.92S35.28,45.55,26.16,60.65c-1.87,3.1-3.69,5.87-5.44,8.47,10,2,32.06,6.61,43.36,9.53C79,82.49,94.32,87.05,109.2,96.89c5,3.29,8.69,5.64,11.43,7.31,2.36-10.41,4.49-20.29,5.13-26C127,67.37,123.12,38.33,117.36,32.81Z"/><path class="cls-11" d="M32.64,155.21c21.84,6.48,27.84,8.16,42.72,9.6s30.24-2.64,30.24-2.64a256.32,256.32,0,0,0,9.12-31.68c1.57-7.53,3.83-17.12,5.91-26.29-2.74-1.67-6.45-4-11.43-7.31-2.45-1.62-4.91-3.09-7.38-4.44a86,86,0,0,1-1.74,25.8c-3.12,14.64-7.68,24.48-13.44,25.2a96.35,96.35,0,0,1-50.64-7C12,126.17,7,115.37,7,115.37s-1.44,13.44-.24,17c.6,1.8.48,4.77.93,8.33A58.62,58.62,0,0,0,32.64,155.21Z"/><path class="cls-12" d="M43,73.79c-1.84-.13-2.91-.18-2.91-.18s-8.88-1.92-15.84,3.6-11,14.88-13.44,22.08S7,110.81,7,115.37s4.32,16.32,22.8,23.28,50.88,15.6,60.48,9.84,11.52-17.76,12.72-27.36,2.64-23.76,2.16-26.64v-.17c-13.59-8.09-27.5-12.19-41-15.67C58.68,77.25,50.82,75.48,43,73.79Z"/><path class="cls-10" d="M89.52,86.55s15.45,16,9.45,36.21c0,0,4.23-12,3-24.21l-.18-6.12A126.66,126.66,0,0,0,89.52,86.55Z"/><path class="cls-10" d="M26.79,92.72s-.63-3.78,2.88-3.33a17.57,17.57,0,0,1,9.63,5c3.59,3.36,4.68,5.94,3.33,6.39s-2.52-1.35-2.88-1.8S26.79,92.72,26.79,92.72Z"/><path class="cls-10" d="M78.81,103s2.07-2.7-.63-2.88-5.67-1-10.53,1.8-7.74,7.11-7.2,8.82,1.57,1.78,2.43,1,2.52-5.31,6.93-6.93A33.32,33.32,0,0,1,78.81,103Z"/><path class="cls-13" d="M114.72,130.49c1.57-7.53,3.83-17.12,5.91-26.29-1.68-1-3.72-2.3-6.18-3.88-.31,3.25-1,8.91-2.37,17.45-2.4,14.64-8.64,33.12-10.08,35.76s-2.64,3.36-9.6,3.84a119.71,119.71,0,0,1-45.12-4.56C25,146.33,15.36,137.93,7.2,133.37A11.76,11.76,0,0,0,2,131.55c.2,1.77.4,2.76.4,2.76s8.4,14.4,30.24,20.88,27.84,8.16,42.72,9.6,30.24-2.64,30.24-2.64A256,256,0,0,0,114.72,130.49Z"/><path class="cls-14" d="M35,94.49s-8.16-5-8.16.48c0,4.1.73,9,3.84,10.8s6,2.16,8.16.48C41.43,104.26,41.76,98.81,35,94.49Z"/><path class="cls-14" d="M80.12,106.13a2.83,2.83,0,0,0-2.45-3,17.78,17.78,0,0,0-7.35.75c-5,1.44-8.48,6.84-6.84,9s4,3.51,8.52,1.83C77.44,112.64,79.76,110.46,80.12,106.13Z"/><path class="cls-15" d="M37.59,103s-4.77-.09-6.48-3.15a11.44,11.44,0,0,1-1-6.84s5.13,2.25,7,4.86S39.57,102.35,37.59,103Z"/><path class="cls-15" d="M78.79,104.26s1.15,1.29,1,2.2-1.73-.36-2.64-.49-1.1-.3-2,.47-1.14,2.22-4.27,2.83a25.48,25.48,0,0,1-5.65.48s.73-3.38,2.3-4.36a22.89,22.89,0,0,1,7.18-2.18A13.41,13.41,0,0,1,78.79,104.26Z"/><path class="cls-3" d="M57.84,14.55h0s-11-2.4-15.12,7.92S35.28,45.55,26.16,60.65,9.16,83.1,4.32,101.21A80.49,80.49,0,0,0,2.4,134.33s8.4,14.4,30.24,20.88,27.84,8.16,42.72,9.6,30.24-2.64,30.24-2.64a256.32,256.32,0,0,0,9.12-31.68c3.36-16.08,9.84-41.52,11-52.32s-2.64-39.84-8.4-45.36S88.8,19.61,57.84,14.55Z"/><path class="cls-1" d="M118,38.68a31.66,31.66,0,0,0,14.24-2.26c7.62-3.08,11.52-7.12,13.38-6.31s1.87,2.59,0,9-10,14.39-13.21,16-9.32,2.75-9.32,2.75-6.33-6.7-6.95-9.06S118,38.68,118,38.68Z"/><path class="cls-2" d="M143.79,31.22c-1.57-.68-3.37,1.81-8.8,4.53a13.31,13.31,0,0,1-4.75,4.44c-5.42,2.91-9,4-8.3,3.88s9.66-1.94,9.66-1.94-9.32,5.66-7,5.82,14.24-7.27,15.08-7.92-5.25,6.79-5.25,6.79-7,5.49-5.76,5.33,4.91,1.94,12-5.65c.93-1,1.79-1.89,2.59-2.71A17.38,17.38,0,0,0,145,40C146.85,33.55,145.65,32,143.79,31.22Z"/><path class="cls-3" d="M118,38.68a31.66,31.66,0,0,0,14.24-2.26c7.62-3.08,9.63-6,11.5-5.2s3.75,1.48,1.88,7.94-10,14.39-13.21,16-9.32,2.75-9.32,2.75-5.93-2.67-7-8.41C114.63,41.85,118,38.68,118,38.68Z"/><path class="cls-16" d="M143.79,70.55c-1.3-1.43-5-2.58-10-4.12a93.43,93.43,0,0,0-9.6-2.52c0-.09-.07-.18-.11-.27a24,24,0,0,1,8,.81C137.21,66,142.25,68.65,143.79,70.55Z"/><path class="cls-7" d="M149.45,76.82s-1.54,5.29-12.24,5.94c-17.82,1.08-27.36-8.28-27.36-8.28l1.26-13.32a11,11,0,0,1,2-1.21c1.07.56,12.44-1.05,11.37-1.61,1.94-1,3.09-.79,8.16-.24,7.68.84,16.46,8.64,16.46,8.64v.41Z"/><path class="cls-8" d="M129.83,71.06c-3.24-.72-11.52.72-14.22,2.52s-.54,4.5-.54,4.5h0a40.44,40.44,0,0,0,22.13,4.65c4.82-.3,7.78-1.53,9.57-2.8l-6.51-4.4C133.07,70.7,133.07,71.78,129.83,71.06Z"/><path class="cls-5" d="M149.45,76.82v-.39a37.92,37.92,0,0,0-12.4-8.25,30.32,30.32,0,0,0-19.44-.72A37.86,37.86,0,0,0,110.19,71l-.32,3.44a25.87,25.87,0,0,0,5.23,3.63h0s-2.16-2.7.54-4.5,17.46-2.88,24.66,2l6.51,4.4A6.81,6.81,0,0,0,149.45,76.82Z"/><path class="cls-17" d="M35,94.49s-4.73-2.92-7-1.88c0,.29.34.76,2,1.46,3,1.26,5.58,3,6.93,5s2.06,5.72,2.9,6.09C41.35,102.62,40.73,98.15,35,94.49Z"/><path class="cls-17" d="M77.67,103.1a17.78,17.78,0,0,0-7.35.75c-5,1.44-8.48,6.84-6.84,9,.14.18.28.35.43.52H64a15.37,15.37,0,0,1,2.56-5.82c1.36-1.57,6-3.24,8.73-3.24a6.48,6.48,0,0,1,4.32,1.62l.5.22h0a2.76,2.76,0,0,0-.38-1.66A2.83,2.83,0,0,0,77.67,103.1Z"/><path class="cls-18" d="M111.87,57.18a2.09,2.09,0,0,1-1.6-.8.8.8,0,0,1-.15-.21c-.2-.34-.39-.71-.58-1.07a4.82,4.82,0,0,0-1.74-2.29,16.36,16.36,0,0,1-2.89-2c-.49-.4-1-.78-1.44-1.1a3.17,3.17,0,0,1-2.3-3,18.51,18.51,0,0,0-2.17-7c-.71-1.21-1.06-1.2-2-.84a6,6,0,0,0-1.4,1c-.2.17-.4.34-.61.5-1.53,2.61-1.79,5.77-1.93,8.78a2.69,2.69,0,0,1-.77,2.17,2.41,2.41,0,0,1-2,.39,72.07,72.07,0,0,1-11.53-3.16,1.9,1.9,0,0,1-1.43-1.8C77,41,77,36.07,78.21,31.14a4.09,4.09,0,0,0,0-.7h0a1.22,1.22,0,0,0-.77-.41,1.41,1.41,0,0,0-1.1.56c-2.36,2.52-4,5.88-5.2,10.58-.25,1-.48,1.9-1.41,2.22s-1.63-.25-2.37-.85c-.16-.13-.31-.28-.47-.42L66.8,42a17.53,17.53,0,0,0-6.06-2.71H58.1a10.15,10.15,0,0,0-4,2.2,2.11,2.11,0,0,1-1.68.63,2.31,2.31,0,0,1-1.56-1.21,1.54,1.54,0,0,1,.42-2.07,1.4,1.4,0,0,1,1.46-.08,13.76,13.76,0,0,1,4.69-2.41,1.4,1.4,0,0,1,.41-.06h3.4a20.26,20.26,0,0,1,7.27,3.27h0c1.31-4.83,3.13-8.38,5.71-11.13A4.21,4.21,0,0,1,77.58,27a4.31,4.31,0,0,1,3.19,2,1.63,1.63,0,0,1,.29.93,3.23,3.23,0,0,0,0,.44,5.8,5.8,0,0,1,0,1.5,49.64,49.64,0,0,0-.79,14.07,68.1,68.1,0,0,0,10,2.81c.17-3.43.55-7,2.51-10.12a1.72,1.72,0,0,1,.36-.4c.24-.18.47-.38.7-.57A7.87,7.87,0,0,1,96,36.17c2.31-.94,4.11-.26,5.47,2.07a21.28,21.28,0,0,1,2.56,8.1,1.25,1.25,0,0,0,.12.46h.15a1.28,1.28,0,0,1,.5.2,20.26,20.26,0,0,1,1.89,1.42A13.06,13.06,0,0,0,109,50.09a7.19,7.19,0,0,1,3.07,3.59c0,.11.11.21.16.32a1.42,1.42,0,0,1,1.53.77,1.52,1.52,0,0,1-.59,2A2.63,2.63,0,0,1,111.87,57.18Z"/><path class="cls-8" d="M56.78,36.39a14.59,14.59,0,0,1,1.46-5.84c1.62-4,3.38-7.88,6.1-11.09a2.5,2.5,0,0,1,1.32-.91c.6-.13,1,.22,1.35.7s0,.87-.19,1.23c-1.41,2.55-2.94,5-4.23,7.65A22.07,22.07,0,0,0,60,36.42Z"/><path class="cls-8" d="M42,34c4.23-6.41,9.16-13.41,12.35-14.76a29.08,29.08,0,0,0-2.68,6,23.33,23.33,0,0,0-1.21,7.5,2.35,2.35,0,0,1-.26,1.19c-.45-.75-1-1.38-1.45-2.17a1.29,1.29,0,0,0-1.65-.78,1.38,1.38,0,0,0-.42.25C45.13,32.16,43.55,33.05,42,34Z"/><path class="cls-8" d="M79.36,28.44a2.74,2.74,0,0,0-3.76-1,2.56,2.56,0,0,0-.75.64c-3,3.07-4.64,7-5.76,11.24-.38,1.48-.39,1.48-1.54.57-.2-.15-.38-.33-.57-.5A45.87,45.87,0,0,1,68.7,23.7c.24-.78.5-1.56.8-2.31.17-.4.34-1,.77-.91s.36.75.31,1.19c-.11.91-.1,1.82-.21,2.74a5.18,5.18,0,0,0,.71,3.52c.54.86,1,.64,1.34-.17A5.34,5.34,0,0,0,73,25.13c0-3.84-.26-7.71.65-11.49a1.47,1.47,0,0,0-.39-1.22C67.77,8.71,65.51.61,67.05,3.19c.31.62,7-3.48,7.93-1,.77,1.92,1.77,3.69,2.66,5.54a4,4,0,0,0,4.17,2.54A2,2,0,0,1,81.72,12c-.9,1.21-.31,2.77-1,4,1-.26,2.11-.19,2-1.86a1.64,1.64,0,0,1,.85-1.42A14.26,14.26,0,0,0,88.8,6.83a.55.55,0,0,1,.28-.26,7.48,7.48,0,0,0,2.93,5A26,26,0,0,1,88.46,17c.22.43.5.38.7.26a4.12,4.12,0,0,1,3.3-.13,122.07,122.07,0,0,0,12.25,2.67A35.33,35.33,0,0,0,116,19.26c.57-.1,1.17-.5,1.73,0a10.59,10.59,0,0,1-2.7,1.48c-1.54.69-1.81,1.58-1,3.19-.9.71-2,.38-2.94.5a68.87,68.87,0,0,1-8,.13,14.82,14.82,0,0,1,3.07,1.3,15.57,15.57,0,0,0,7.2,1.53,36.17,36.17,0,0,1,6.31.7c2,.38,2.57.88,2.37,3.25h-.73a2.08,2.08,0,0,0-2.94,0,2.88,2.88,0,0,0-.22.27c-.63.07-1.27.16-1.9.22a2.89,2.89,0,0,1-2.24-.67c-1.17-.93-2.17-.51-2.73,1a.67.67,0,0,1-.79.21c1.72,2.16,2.77,5,3.85,7.79a7.28,7.28,0,0,1,.43,3.14c-.31,1.17-1.09,1.32-2,1.24s-1.45-.55-1.75-1.66c-1.31-5-3.52-9.24-7.34-12.28-.35-.27-.69-.65-1.25-.53-.11.65.31,1,.62,1.37A22.74,22.74,0,0,1,107.21,39a2.68,2.68,0,0,1-.22,2c-.74,2-2.11,3.57-2.39,5.75-.89-.16-1.34-.64-1.5-1.77a19.6,19.6,0,0,0-2.45-7.52c-1-1.71-2.11-2.14-3.84-1.46a13.24,13.24,0,0,0-2.66,1.86,2.8,2.8,0,0,1-.57-2.16c0-1.48-.26-2.92-.32-4.39a3,3,0,0,0-.57-1.71c.15,2,.09,3.86.12,5.69a37.27,37.27,0,0,1-.8,7.59,5.87,5.87,0,0,1-1,2.47,2,2,0,0,1-2.26.91,2.34,2.34,0,0,1-1.54-1.94,3.64,3.64,0,0,1-.09-1.23,17.56,17.56,0,0,0-.84-6.75,62,62,0,0,1-1.73-12.19c.19,4.29-.07,8.61.51,12.89a9.23,9.23,0,0,1-.18,3.55.85.85,0,0,1-1,.77A2.7,2.7,0,0,1,81.29,39a28,28,0,0,1-.51-5c0-3.06-.41-6.13.08-9.33C80.2,25.92,80.07,27.32,79.36,28.44Z"/><path class="cls-7" d="M71.12,28.41c-1.26-1-1.29-2.53-1.11-3.94s-.11-2.56.33-3.8A24.12,24.12,0,0,0,68,28.18c-.54,3.55-1.12,7.11-.56,10.73a.45.45,0,0,1-.45.51,20.35,20.35,0,0,0-7-3c-.44-.55-.18-1.13-.06-1.7a35.05,35.05,0,0,1,4.18-10.17c.74-1.32,1.55-2.58,2.23-3.94.25-.48.56-1,0-1.46a1,1,0,0,0-1.34.09,8.37,8.37,0,0,0-1.78,2.06C60.51,25.8,58,30.44,57,35.92a1.26,1.26,0,0,1-.25.47A12.44,12.44,0,0,0,51.89,39c-.51.46-.74.29-1.11-.27-1-1.5-.48-3.17-.59-4.76-.32-5.13,1.18-9.7,3.4-14.06-3.59,3-6.35,6.88-9,10.85A19.63,19.63,0,0,1,42,34l-3.76,3.21c-.61.52-1,.28-1.1-.5a19.63,19.63,0,0,1,3.41-15,19.46,19.46,0,0,1,6.29-5.89c.25,0,.5.15.76,0a12.48,12.48,0,0,1,6.54-1.41,3.05,3.05,0,0,0,1-.07c.73-.24,1.82-.3,2-1s-.93-.89-1.44-1.36c-2-1.69,3,4,1.33,2a44.48,44.48,0,0,0-6.19-6.31c.32-.92.88-.34,1.29-.21C54.68,8.3,65,9.32,64.26,8.62S63,7.48,62.34,7c-.34-.27-.81-.51-.65-1.16C62.8,4.85,73.26,2.7,73.15,3.7s-.79,1.45-1.65,1A3.53,3.53,0,0,1,69.94,3.3c-1.67-2.86-3.18-1.65-1.52.78a82.51,82.51,0,0,0,4.67,7.47,4,4,0,0,1,.61,3.68c-.7,3.33-.34,6.74-.38,10.12a5,5,0,0,1-.75,2.83C72.12,28.41,71.69,28.86,71.12,28.41Z"/><path class="cls-7" d="M79.36,28.44c.07-1.84,1-3.32,1.72-5v1.12a77,77,0,0,0,0,8.32c.11,2,.28,4.09.51,6.12a2.37,2.37,0,0,0,2.64,2.07h0c.36,0,.18-.31.23-.47.63-2.23.1-4.47-.09-6.66-.3-3.6,0-7.17-.08-10.76a3.65,3.65,0,0,1,.6,2.43,71.12,71.12,0,0,0,2.35,13.66,18.27,18.27,0,0,1,.12,4.18c0,1.2.31,2.21,1.42,2.55s1.94-.42,2.41-1.77a25.44,25.44,0,0,0,1.24-7.34,30.2,30.2,0,0,0-.17-7.11c-.06-.31-.19-.82.23-1s.41.35.58.59a4.85,4.85,0,0,1,.62,2.32c.17,2.09.32,4.17.48,6.26-1.87,2.91-2.17,6.31-2.37,9.75,0,.92,0,1.32-1.11,1.14A74.62,74.62,0,0,1,79,45.74c-.22-.07-.43-.06-.45-.47-.32-5.11-.42-10.19.81-15.2A7.41,7.41,0,0,0,79.36,28.44Z"/><path class="cls-7" d="M104.64,46.89a1.82,1.82,0,0,1,.33-2.22c.63-.66.72-1.78,1.21-2.47,1.83-2.57.19-4.56-.73-6.6a14.59,14.59,0,0,0-2.72-4,5,5,0,0,1-.57-.87.81.81,0,0,1,0-1c.28-.3.54-.07.78.07a13.89,13.89,0,0,1,4.87,5,24.82,24.82,0,0,1,3.7,8.69c.15.84.8.68,1.2.82a1.33,1.33,0,0,0,1.81-.56.72.72,0,0,0,.09-.2c.14-.15.09-.5.31-.54s.26.24.29.46c0,.4-.13.82.14,1.19a16.28,16.28,0,0,1-.82,8.18,2.21,2.21,0,0,1-1.12,1.21c-.41.22-.81.35-1.19-.08-.88-1.46-1.49-3.22-3.06-4S106.19,47.85,104.64,46.89Z"/><path class="cls-7" d="M117.8,19.34a43.5,43.5,0,0,1-10.3,1.08,56.29,56.29,0,0,1-11.07-1.93c-1.76-.42-3.53-.85-5.29-1.31a1.85,1.85,0,0,0-1.51.32c-.39.24-.77.51-1.25.21-.19-.12-.52,0-.62-.29s.16-.51.34-.67a14.44,14.44,0,0,0,3.18-4.59.9.9,0,0,1,.73-.61,37.61,37.61,0,0,1,6.5,3.63,7.62,7.62,0,0,0,4.41,1.37c2.94,0,5.89-.09,8.83,0a13.81,13.81,0,0,1,6.93,2.06C118.51,19.17,118.14,19.22,117.8,19.34Z"/><path class="cls-8" d="M61.63,5.8c.65,1.09,1.75,1.56,2.6,2.4s1.58,1.69,2.36,2.55A1.93,1.93,0,0,1,66.78,13c-.4.81-1,.2-1.49.1-1.62-.3-2.62-1.71-3.85-2.71-5.09-4.2-3.53-.38-9.55-2.72-.33-.13-.71-.56-1.1-.07L48.3,5.48a1.17,1.17,0,0,1,.27-.86,14.16,14.16,0,0,1,8.07,2c3.3,1.8-.39-3.79,2.61-1.53A3,3,0,0,0,61.63,5.8Z"/><path class="cls-7" d="M122.14,31.42c-.09-.23-.4-.3-.32-.67.31-1.43-.5-1.79-1.5-2.09-1.34-.41-2.84,0-4.07-1-.76.86-1.61.09-2.41.15a17.63,17.63,0,0,1-9.21-2.2c-.87-.43-1.78-.74-2.66-1.24,4-.15,8.09-.06,12.12-.4,1.49.87,3.17,1,4.73,1.61a28.5,28.5,0,0,1,8.45,5.22,3.54,3.54,0,0,1,.44.58Z"/><path class="cls-7" d="M89.13,6.6a11.78,11.78,0,0,1-5,6.12,2,2,0,0,0-1,2.32c.12.51,0,.62-.43.72a2.32,2.32,0,0,0-1.41.72c-.27.34-.49.17-.7-.09s-.5-.52-.13-.9a1,1,0,0,0,.38-.82c-.34-1.68,1-2.88,1-4.44,1.7-1.56,3.07-3.5,4.67-5.18.55-.5,1.05-1.5,1.75-1.29s.59,1.41.85,2.16A3.08,3.08,0,0,1,89.13,6.6Z"/><path class="cls-19" d="M127.27,30.84a28.5,28.5,0,0,0-8.45-5.22c-1.56-.6-3.24-.74-4.73-1.61h0c-.8-1.61-.53-2.5,1-3.19a10.59,10.59,0,0,0,2.7-1.48c.34-.12.71-.17.88-.71a13.69,13.69,0,0,0-6.92-2.08c-2.94-.1-5.89,0-8.83,0a7.63,7.63,0,0,1-4.38-1.35A38,38,0,0,0,92,11.55h0a7.49,7.49,0,0,1-2.91-5A3.08,3.08,0,0,0,89,5.87c-.26-.75-.17-1.92-.85-2.16s-1.17.84-1.7,1.34c-1.6,1.68-3,3.62-4.67,5.18a4,4,0,0,1-4.17-2.54C76.75,5.84,75.75,4.07,75,2.15,74-.29,62.74,4.87,61.63,5.81a3,3,0,0,1-2.38-.76c-3-2.26.69,3.33-2.61,1.53a14.16,14.16,0,0,0-8.07-1.95,1.17,1.17,0,0,0-.27.86l2.49,2.14h0A44.48,44.48,0,0,1,57,13.94c1.65,2.06-3.35-3.67-1.33-2,.51.47,1.64.65,1.44,1.36s-1.28.74-2,1a3.05,3.05,0,0,1-1,.07,12.48,12.48,0,0,0-6.54,1.41c-.26.14-.51,0-.76,0a19.46,19.46,0,0,0-6.29,5.89,19.63,19.63,0,0,0-3.41,15c.12.78.49,1,1.1.5L42,34c1.57-.91,3.15-1.8,4.71-2.73a1.29,1.29,0,0,1,1.82.11,1.12,1.12,0,0,1,.25.42c.42.79,1,1.42,1.45,2.17h0c.11,1.59-.38,3.26.59,4.76.37.56.6.73,1.11.27a12.44,12.44,0,0,1,4.87-2.57H60a20.35,20.35,0,0,1,7,3c.19.17.37.35.57.5,1.15.91,1.16.91,1.54-.57,1.12-4.27,2.79-8.17,5.76-11.24a2.76,2.76,0,0,1,3.87-.42,2.71,2.71,0,0,1,.64.75,7.4,7.4,0,0,1,0,1.63c-1.23,5-1.13,10.09-.81,15.2,0,.41.23.4.45.47a74.62,74.62,0,0,0,11.75,3.15c1.07.18,1.06-.22,1.11-1.14.16-3.44.5-6.84,2.38-9.75h0a13.24,13.24,0,0,1,2.66-1.86c1.73-.68,2.81-.25,3.84,1.46a19.6,19.6,0,0,1,2.45,7.52c.16,1.13.61,1.61,1.5,1.77,1.55,1,2.86,2.35,4.52,3.13s2.18,2.49,3.06,4c.38.43.78.3,1.19.08a2.21,2.21,0,0,0,1.12-1.21,16.28,16.28,0,0,0,.82-8.18c-.27-.37-.09-.79-.14-1.19,0-.22,0-.51-.29-.46h0a7.77,7.77,0,0,0-.44-2.75c-1.08-2.81-2.13-5.63-3.85-7.79a.67.67,0,0,0,.79-.21c.56-1.52,1.56-1.94,2.73-1a2.89,2.89,0,0,0,2.24.67c.63-.06,1.27-.15,1.9-.22a2.08,2.08,0,0,1,2.9-.52,2.75,2.75,0,0,1,.26.22h6.3A3.72,3.72,0,0,0,127.27,30.84Z"/><path class="cls-16" d="M103.54,93.32c-.3-3.83,1-9.48,1.65-13.18,1.06-5.77,2.21-11.52,3-17.32.18-1.26.37-2.51.65-3.75A4.45,4.45,0,0,1,112,56.32c1-.76,3.27.27,2.88.47a12.91,12.91,0,0,0-3.56,2.76,2.25,2.25,0,0,0-.72,1.34,1.13,1.13,0,0,0,.91,1.31,1.16,1.16,0,0,0,.71-.1,2.62,2.62,0,0,0,1-.63,8.41,8.41,0,0,1,5.53-2.71,34.35,34.35,0,0,1,7.85,0c.11,0,.2.11.3.17-.36.41-.86.33-1.33.34h-2.26c-1.89,0-2.7,1.24-3.26,2.74-.31.84.27,1.26,1,1.48a4.5,4.5,0,0,0,2,0,6.72,6.72,0,0,1,2-.12c.35,0,.84,0,.89.53-4.94.37-9.38,2.29-13.79,4.34-.82.37-1.27,1-.83,1.91.53,1.63.19,2.3-1.21,2.41-1.64.52-1.93,1.62-.76,2.93a19.4,19.4,0,0,0,8.7,5.47c1.81.6,3.5,1.54,5.38,2,.56.13.56.48.45,1-.89,4.33-1.74,8.65-2.58,13-.26,1.36-.47,2.74-.67,4.11-.1.67-.44,3.16-1.2,3.19a38.23,38.23,0,0,0-3.15-2.38c-3.82-2.65-7.69-5.22-11.7-7.59C104.17,94.09,103.57,94,103.54,93.32Z"/><path class="cls-3" d="M137.21,82.76c-17.82,1.08-27.36-8.28-27.36-8.28"/><path class="cls-3" d="M147.75,76.28s-4-10.26-25.38-9.72c0,0-7.56.9-11.88,3.78"/><path class="cls-3" d="M111.11,61.16s3.79-3.22,12.42-3.6c16.38-.72,25.56,9.18,25.56,9.18l.36,10.08s-1.55,5.29-12.24,5.94"/><path class="cls-20" d="M129.27,63.38s-2.52-1.08-.36-2.16,5.16-.36,9,1.08,4.1,3.84,4.1,3.84-.72,1.2-4.32-.72A21.71,21.71,0,0,0,129.27,63.38Z"/></g></g></g></g></svg>