<svg xmlns="http://www.w3.org/2000/svg" viewBox="0 0 79.22 79.07"><defs><style>.cls-1{fill:#689331;}</style></defs><title>hills</title><g id="Capa_2" data-name="Capa 2"><g id="Capa_1-2" data-name="Capa 1"><path class="cls-1" d="M79.22,39.61A39.61,39.61,0,1,0,35.94,79.05c.18-3.28,1.06-21.73-1.85-28.12-2.39,1.75-2.41-1-3.33-1.61-3.29,2.18-8.62-.9-8.86-2.38-1-.21.06-1.3-.12-1.49-1.53.79-.92-.37-1-.89-.68,0-.88-.47-.79-.54-2-6.12-5.26-1.31-4.31-4.68-1.13-.22.08-1.47-.14-1.66-1.71.88-1-.42-1.11-1-.77,0-1.38-1.61-1.67-1.78-.61-.86,3.38-4.1,3.46-4.38a1.32,1.32,0,0,1,0-2.3c-2-1.28.89-3.68,1.76-3.88,1.51-3.61,7-5.3,10.9-6.84,2.3-5.77,8.87-4.17,11.67-5.38.49-.8.64-.47.78-.25,1.94-.44,5-.32,4.24.86a47.36,47.36,0,0,1,9.12,5.39c.76,1.22,4.34,1.46,2.56,2.94,1.26.06,1,2.59,1,2.72,2.5-.58,4.15,3.84,5.75,3.77,7.06,4.18,2.1,5.54,2.61,7.89-2.42,2.89-4.82,4.87-5,3.44,1.09,5.43-.46,3.53-.46,6.12-2.23,2.69-4.5,4.53-4.61,3.2-2.59,2.53-2.05.61-3.1,0C37.91,55.69,42.08,75.52,43,79.07A39.61,39.61,0,0,0,79.22,39.61Z"/></g></g></svg>