<svg xmlns="http://www.w3.org/2000/svg" viewBox="0 0 48.79 74.5"><defs><style>.cls-1{fill:#1d1d1b;}.cls-2{fill:#fff;}.cls-3{fill:#010101;}</style></defs><title>holstein</title><g id="Capa_2" data-name="Capa 2"><g id="Capa_1-2" data-name="Capa 1"><path class="cls-1" d="M22.44,57.06V74.32h-4.2v-7.1H11.69v7.1H7.49V57.06h4.2v6.77h6.55V57.06Z"/><path class="cls-1" d="M29.16,73.37a8.57,8.57,0,0,1-3.22-3.16,8.93,8.93,0,0,1-1.19-4.57,8.79,8.79,0,0,1,1.19-4.54A8.47,8.47,0,0,1,29.16,58a9.39,9.39,0,0,1,8.93,0,8.28,8.28,0,0,1,3.2,3.15,9.45,9.45,0,0,1,0,9.11,8.42,8.42,0,0,1-3.19,3.16,9.37,9.37,0,0,1-8.92,0Zm7.77-4.09a5.94,5.94,0,0,0,0-7.29,4.23,4.23,0,0,0-3.3-1.36A4.28,4.28,0,0,0,30.3,62a6,6,0,0,0,0,7.32,4.26,4.26,0,0,0,3.33,1.36A4.21,4.21,0,0,0,36.93,69.28Z"/><circle class="cls-2" cx="24.39" cy="24.39" r="24.39"/><path class="cls-3" d="M28.59.37A24.16,24.16,0,0,1,39.12,5"/><path class="cls-3" d="M24.92,8.13c2.53,1.66,2,3,4,5.24s6.9,2.85,9.45-4.15A11,11,0,0,0,39.12,5,24.16,24.16,0,0,0,28.59.37c-.86.16-8.65,0-10.65.5a4.11,4.11,0,0,0-.23,1.26C17.59,5.15,22.93,6.83,24.92,8.13Z"/><path class="cls-3" d="M38.21,24.87c-1.47-2-3.08-3.75-5.54-3.32-2.11.38-3.11,3.55-1.73,6.38a9.32,9.32,0,0,1,1.27,3.71c0,2.52-2.37,3.31-3.55,5.82-1.92,4.11,2.3,6.56,5,4.25C35.69,40,35,37,37.61,34.9c1-.8,3.57-.32,5.64-.48,3-.22,4.81-4.41,1.5-6.38C42.75,26.84,40.38,27.81,38.21,24.87Z"/><path class="cls-3" d="M41.48,11.83a2.53,2.53,0,0,0,.64,2.26,13.84,13.84,0,0,0,5.78,3.78,24.43,24.43,0,0,0-4.16-8.33A3.24,3.24,0,0,0,41.48,11.83Z"/><path class="cls-3" d="M10.16,33.56c2.69-.09,1.17-5.09,4.41-7.68,2.52-2,6.55-.51,9.25-3.82,1.77-2.18,3.08-7.68-3.07-10-1.47-.56-2.95,0-4.3.39C12,13.89,9.87,9.06,5.83,8.62h0A24.13,24.13,0,0,0,.57,19.17C1.26,26.05,4.89,33.72,10.16,33.56Z"/><path class="cls-3" d="M19.26,39.78c-3.47-.7-4.41-3.07-8.17-2.7A2.42,2.42,0,0,0,9,38.61c-.54,1.29-.83,5.13,3.12,4.69,4.35-.48,5.92,1.11,10.19.12a2.33,2.33,0,0,0,2-2.31C24.31,39.2,21.55,40.24,19.26,39.78Z"/></g></g></svg>