<svg xmlns="http://www.w3.org/2000/svg" viewBox="0 0 79.22 79.16"><defs><style>.cls-1{fill:#689331;}</style></defs><title>jungle</title><g id="Capa_2" data-name="Capa 2"><g id="Capa_1-2" data-name="Capa 1"><path class="cls-1" d="M79.22,39.61A39.61,39.61,0,1,0,37.46,79.16c-3-24.71-2.46-19.46,1.6-44.92-3.27,2.2-8,5.64-10.1,9.24L27,42.13a5.16,5.16,0,0,1,0,3.18,5.59,5.59,0,0,1-.6.92l-1.61,2.16a.56.56,0,0,1-.24.22.52.52,0,0,1-.38-.08l-1.39-.68c-.16,1.54.43,3.12,0,4.6-.39,1.3-1.5,2.27-1.93,3.55a7.62,7.62,0,0,1-2.41-3.59,12.46,12.46,0,0,1-.87-5.87c.47-3.83,3.3-7,6.51-9.19a25.92,25.92,0,0,1,10.5-4.16,21.7,21.7,0,0,0-2.63,0l-1.62.1-3.57.21a2,2,0,0,1,.64,1.22l-2.7.62a1.6,1.6,0,0,1-.75.06c-.66-.16-1-1.08-1.65-1.13L22,35.66a1.12,1.12,0,0,1-.12.35,1,1,0,0,1-.48.3l-4.18,1.58c-.2-.71-.39-1.42-.59-2.13A8.68,8.68,0,0,1,15,39a7.9,7.9,0,0,1-1.27,1c-.86.6-1.73,1.17-2.63,1.7a11.07,11.07,0,0,1,.32-6.35,10.2,10.2,0,0,1,5.2-5.19A20.7,20.7,0,0,1,24,28.54a30,30,0,0,1,11.74,1.35,30.36,30.36,0,0,0-3.36-1.31c-.83-.26-.71-1.64-1.47-2.08a.89.89,0,0,1-1.17.87,15.11,15.11,0,0,0-2.86-.91,4.9,4.9,0,0,0-.37-2c-.63.66-1.51,1.37-2.34,1a22.88,22.88,0,0,0-3.84-1.31l.45-1.3a6.25,6.25,0,0,1-3.6,1.5,18.84,18.84,0,0,1-4-.12,13.8,13.8,0,0,1,16.18-3.58c4,1.81,7.41,5.95,10.05,9.57A31.27,31.27,0,0,1,47.73,23c3.18-1.9,7-3.2,10.58-2.29a12.86,12.86,0,0,1,7,5.21,19.86,19.86,0,0,1-3.93,0,3.7,3.7,0,0,1-1-.21c-.86-.36-1.36-1.27-2.19-1.69.05.34.11.69.17,1a.47.47,0,0,1,0,.29.45.45,0,0,1-.32.14l-4.48.54a4.3,4.3,0,0,1-1,0,4.07,4.07,0,0,1-1.77-.86l.43.93a.5.5,0,0,1,.07.27c0,.22-.3.33-.52.38a22.69,22.69,0,0,0-6.28,2.49,25.87,25.87,0,0,1,11.68-1.73c3.91.4,7.87,1.91,10.35,4.94,2.18,2.66,3,6.16,3.72,9.52a17.49,17.49,0,0,0-3.88-1.91,1.56,1.56,0,0,1-1.13-1l-1.56-2.84a9.08,9.08,0,0,1-.09,2.55l-5-1.33a1.12,1.12,0,0,1-1-.81c-.29-.68-.57-1.36-.85-2a7.09,7.09,0,0,0-.79,1.64L52.15,35a1.77,1.77,0,0,1-.76-.45c-.52-.62,0-1.68-.49-2.32a3.69,3.69,0,0,1-2.45,1.4,3.49,3.49,0,0,1-.91-.17L46,33a37.48,37.48,0,0,1,8.2,5.35,18.38,18.38,0,0,1,6.17,10.12,12.43,12.43,0,0,1-3.22,11.15,15.79,15.79,0,0,1-2.74-11.43l-2,1.65a45,45,0,0,1-5.67-7.22l1.71-1C45.11,40.8,42.77,38,40.81,35c-1.28,22.77,1.11,22.12,3.63,43.89A39.61,39.61,0,0,0,79.22,39.61Z"/></g></g></svg>