<?xml version="1.0" encoding="utf-8"?>
<!-- Generator: Adobe Illustrator 24.0.0, SVG Export Plug-In . SVG Version: 6.00 Build 0)  -->
<svg version="1.1" id="Capa_1" xmlns="http://www.w3.org/2000/svg" xmlns:xlink="http://www.w3.org/1999/xlink" x="0px" y="0px"
	 viewBox="0 0 77 77" style="enable-background:new 0 0 77 77;" xml:space="preserve">
<style type="text/css">
	.st0{fill:#FFFFFF;}
</style>
<title>masculino</title>
<g id="Capa_2_1_">
	<g id="Capa_1-2">
		<path class="st0" d="M38.5,36.5c-6.7,0-12.2,5.5-12.2,12.2s5.5,12.2,12.2,12.2s12.2-5.5,12.2-12.2C50.7,42,45.2,36.5,38.5,36.5z"
			/>
		<path class="st0" d="M38.5,0C17.2,0,0,17.3,0,38.5S17.3,77,38.5,77C59.8,77,77,59.7,77,38.5C77,17.2,59.8,0,38.5,0
			C38.5,0,38.5,0,38.5,0z M38.5,68.7c-11,0-20-9-19.9-20.1c0-9.5,6.7-17.6,16-19.5v-6.3l-2.6,3c-1.2,1.8-3.7,2.2-5.4,0.9
			c-1.8-1.2-2.2-3.7-0.9-5.4c0.1-0.2,0.3-0.3,0.4-0.5l9.5-11.2C36.9,8,39.4,7.8,41,9.2c0.2,0.2,0.4,0.4,0.5,0.6l8.7,11.1
			c1.3,1.7,1,4.2-0.7,5.5c-1.7,1.3-4.1,1-5.4-0.7l-1.7-2.2v5.6C53.2,31.3,60.2,41.9,58,52.7C56.1,62,48,68.7,38.5,68.7z"/>
	</g>
</g>
</svg>
