<svg xmlns="http://www.w3.org/2000/svg" viewBox="0 0 76.97 76.97"><defs><style>.cls-1{fill:#689331;}</style></defs><title>masculino</title><g id="Capa_2" data-name="Capa 2"><g id="Capa_1-2" data-name="Capa 1"><path class="cls-1" d="M38.49,36.53A12.19,12.19,0,1,0,50.68,48.72,12.21,12.21,0,0,0,38.49,36.53Z"/><path class="cls-1" d="M38.49,0A38.49,38.49,0,1,0,77,38.49,38.49,38.49,0,0,0,38.49,0Zm0,68.71a20,20,0,0,1-3.9-39.6V22.8L32,25.8a3.9,3.9,0,1,1-5.95-5L35.51,9.64a3.91,3.91,0,0,1,6.05.11l8.71,11.13a3.9,3.9,0,0,1-6.14,4.81l-1.74-2.23v5.65a20,20,0,0,1-3.9,39.6Z"/></g></g></svg>