<svg xmlns="http://www.w3.org/2000/svg" viewBox="0 0 79.22 79.18"><defs><style>.cls-1{fill:#689331;}</style></defs><title>mountains</title><g id="Capa_2" data-name="Capa 2"><g id="Capa_1-2" data-name="Capa 1"><path class="cls-1" d="M79.22,39.61A39.61,39.61,0,1,0,38,79.18c0-2.22.08-11.85.35-14.51-.15-.14-.29-.29-.42-.43-.73-.76-19.73.63-24,.17-.35,0-.38-.47-.2-.7.56-.72.85-.6,1.68-1.17a68.75,68.75,0,0,0,5.83-4.38c.48-.43,1-.88,1.42-1.32a23.79,23.79,0,0,1-9.36,1.89c-.54,0-.2-.69,0-.87C15,56.58,17,55.78,18.69,54.5a63.6,63.6,0,0,0,6.62-5.66c.47-.43.92-.89,1.37-1.36a5,5,0,0,1-1.85,1.23,14.58,14.58,0,0,1-1.84.71,8.57,8.57,0,0,1-4.83.34c-.27-.07-.29-.33-.16-.54,1-1.63,3.18-2.72,4.52-4a50,50,0,0,0,6.37-6.88q1.3-1.82,2.6-3.64c.14-.2-1.83.71-1.56.59a11.69,11.69,0,0,1-4.87,1.44c-.29,0-.34-.31-.14-.49a85.89,85.89,0,0,0,9.9-10.54A20.87,20.87,0,0,0,37,22.57c.65-1.19-.36-.06-.82.25a9.34,9.34,0,0,1-3.4,1.65c-.26.05-.3-.26-.2-.43,1.32-2.18,2.64-4.33,3.88-6.51a55.88,55.88,0,0,0,4.12-8.61.41.41,0,0,1,.22-.23l.09,0h.18a.19.19,0,0,1,.09,0,.4.4,0,0,1,.23.23c2,5.46,5,10.18,8,15.12a.3.3,0,0,1,0,.39h0a.19.19,0,0,1-.13,0,9.39,9.39,0,0,1-3.41-1.65l-.11-.08c-.16-.12-.35-.3-.52-.44h0c-.35-.3-.59-.46-.18.28a21.56,21.56,0,0,0,2.2,3.14,86,86,0,0,0,9.91,10.54.32.32,0,0,1,.09.36.1.1,0,0,1,0,0s0,0,0,0a.24.24,0,0,1-.15,0,11.78,11.78,0,0,1-4.88-1.44h0c-.11,0-1-.44-1.37-.57-.14,0-.22-.07-.19,0,.85,1.22,1.73,2.43,2.6,3.64a49.94,49.94,0,0,0,6.36,6.88c1.35,1.27,3.54,2.36,4.53,4a.36.36,0,0,1,0,.46.22.22,0,0,1-.14.08A8.6,8.6,0,0,1,59,49.42a14.44,14.44,0,0,1-1.83-.71,4.93,4.93,0,0,1-1.85-1.23c.44.47.9.93,1.37,1.36a62.58,62.58,0,0,0,6.62,5.66c1.71,1.28,3.72,2.08,5.39,3.36.22.18.56.86,0,.87a23.79,23.79,0,0,1-9.36-1.89c.47.44.94.89,1.42,1.32a65.69,65.69,0,0,0,5.83,4.38c.82.57,1.11.45,1.68,1.17.17.23.14.67-.2.7-4.28.46-23.31.51-24.42-.23.06.78.1,1.58.16,2.37.15,2-.13,10.15-.22,12.47A39.62,39.62,0,0,0,79.22,39.61Z"/></g></g></svg>