<svg xmlns="http://www.w3.org/2000/svg" viewBox="0 0 78.68 78.31"><defs><style>.cls-1{fill:#689331;}</style></defs><title>plains</title><g id="Capa_2" data-name="Capa 2"><g id="Capa_1-2" data-name="Capa 1"><path class="cls-1" d="M78.68,39.34A39.34,39.34,0,1,0,34,78.31c-.29-.86-1.26-3-3.56-3,2.2-.76,4.39-.26,5,1.31.13-1.46-3.44-4-3.44-4s3.23.83,3.8,2.51l.29-1a5.67,5.67,0,0,0-.56-3.31A6.06,6.06,0,0,1,37,74.12,10.41,10.41,0,0,1,39,71.41s0-7.37.08-8.59c-2.95,2.39-4.24.68-4.24.65s-.79.25-1.11.48-1.21.53-1.31-.15-1-5.17-.9-5.53a.56.56,0,0,1-.49-.64,10.93,10.93,0,0,1,.72-3.47l-.1-.09a.71.71,0,0,1-1-.85c.25-1.08,1.05-6.78,1.59-8.27h0c-.57.14-.94-.33-.87-.87a9.47,9.47,0,0,1,1.72-4.33,2.37,2.37,0,0,1-.34-.51,6.92,6.92,0,0,1-.16-3.91.79.79,0,0,1-.74-.72,12.39,12.39,0,0,1,2.05-7,.71.71,0,0,1-.14-.39A11.2,11.2,0,0,1,34.31,24c0-.11,0-.22,0-.32a.75.75,0,0,1-.79-.9A23.66,23.66,0,0,1,35.18,17a.73.73,0,0,1-.16-.64c.18-.63.34-1.27.51-1.9a.8.8,0,0,1-.7-.71,22.23,22.23,0,0,1,2.72-6.14,1.43,1.43,0,0,1,.15-.18c.85-.9,1.79-.24,2.58.83a1.89,1.89,0,0,0,.12.36s.06,0,.09.11a40.48,40.48,0,0,1,2.13,5,.74.74,0,0,1-.66.91h-.1a11.41,11.41,0,0,1,1.67,3.47.75.75,0,0,1-.89.93,11.47,11.47,0,0,0,.81,2.21.83.83,0,0,1-.12.93c5.08,10.61,1.07,5.54,1.6,6.44,1.58,2.68,3.55,6.68,3,7.35s-.74.21-1.16.24a32.52,32.52,0,0,1,2,5.63.71.71,0,0,1-.91.86c.2.65.37,1.3.55,2a.68.68,0,0,1-.85.86c.55,1,2.47,6.6,2.91,8.11.13.48-.33,1.06-.83.88-.18-.08-.33-.16-.5-.22.36.94.66,1.89,1,2.86a.71.71,0,0,1-.74.89c.24.72,0,5,.24,6,.14.56-.48,1.2-1,.82s-1.09-.7-1.64-1c.17.63.12,2.74-.43,2.9-2.37.68-3.25-2-5-3.59-.36,1.15.17,10.21.17,11a3.71,3.71,0,0,1,.9-1.74,18,18,0,0,0-.24,4.84,6.39,6.39,0,0,1,3.42-4.06,12.68,12.68,0,0,0-1.47,3.38,5.47,5.47,0,0,1,3.64-1.64,9.62,9.62,0,0,0-2.67,3.06A4.72,4.72,0,0,1,48.28,77a13.45,13.45,0,0,0-1.32.94A39.35,39.35,0,0,0,78.68,39.34Z"/></g></g></svg>