<?xml version="1.0" encoding="utf-8"?>
<!-- Generator: Adobe Illustrator 24.0.0, SVG Export Plug-In . SVG Version: 6.00 Build 0)  -->
<svg version="1.1" id="Capa_1" xmlns="http://www.w3.org/2000/svg" xmlns:xlink="http://www.w3.org/1999/xlink" x="0px" y="0px"
	 viewBox="0 0 112.1 144.6" style="enable-background:new 0 0 112.1 144.6;" xml:space="preserve">
<style type="text/css">
	.st0{fill:#FFFFFF;}
</style>
<title>reloj</title>
<g id="Capa_2_1_">
	<g id="Capa_1-2">
		<path class="st0" d="M1.4,0h109.4c0.8,0,1.4,0.6,1.4,1.4v7.7c0,0.8-0.6,1.4-1.4,1.4H1.4C0.6,10.5,0,9.9,0,9.1V1.4
			C0,0.6,0.6,0,1.4,0z"/>
		<path class="st0" d="M1.4,134.1h109.4c0.8,0,1.4,0.6,1.4,1.4v7.7c0,0.8-0.6,1.4-1.4,1.4H1.4c-0.8,0-1.4-0.6-1.4-1.4v-7.7
			C0,134.7,0.6,134.1,1.4,134.1z"/>
		<path class="st0" d="M46.7,72.9C23.5,78.7,5.9,97.7,5.9,130.2h100.2c0-32.4-17.4-51.3-40.6-57.3c-0.3-0.1-0.5-0.4-0.5-0.7
			c0-0.2,0.2-0.4,0.5-0.5c23.1-5.9,40.6-24.8,40.6-57.3H5.9c0,32.5,17.5,51.5,40.7,57.3c0.3,0,0.6,0.2,0.6,0.6S47,72.9,46.7,72.9z
			 M18.9,36.2c0,0,14,5,37.8,4.5c27-0.5,32.9,3.6,32.9,3.6c0,14.5-25.3,23.3-31.3,24.5c1,1.8,1.6,3.9,1.6,6c0,2.3-1.4,4.1-3,4.1
			s-3.1-1.8-3.1-4c0.1-2.2,0.8-4.3,2-6.1C41.2,65.5,18.9,51.9,18.9,36.2z M59.7,88c0,1.7-1.4,3-3.1,3c-1.7,0-3-1.4-3-3
			c0-1.6,0.9-5.3,2.6-5.3S59.7,86.4,59.7,88z M56,102.7c21.6,0,39.2,10.3,39.2,23.1H16.9C16.9,113.1,34.4,102.8,56,102.7L56,102.7z"
			/>
	</g>
</g>
</svg>
