<svg xmlns="http://www.w3.org/2000/svg" viewBox="0 0 112.1 144.59"><defs><style>.cls-1{fill:#689331;}</style></defs><title>reloj</title><g id="Capa_2" data-name="Capa 2"><g id="Capa_1-2" data-name="Capa 1"><rect class="cls-1" width="112.1" height="10.46" rx="1.36"/><rect class="cls-1" y="134.13" width="112.1" height="10.46" rx="1.36"/><path class="cls-1" d="M46.65,72.87C23.46,78.72,5.94,97.7,5.94,130.17H106.16c0-32.41-17.45-51.35-40.55-57.27a.6.6,0,0,1,0-1.18c23.1-5.9,40.55-24.84,40.55-57.25H5.94c0,32.47,17.52,51.45,40.71,57.29A.57.57,0,0,1,46.65,72.87ZM18.89,36.23s14,5,37.77,4.53c27-.5,32.9,3.6,32.9,3.6,0,14.45-25.28,23.25-31.35,24.55a12.93,12.93,0,0,1,1.64,6c0,2.27-1.36,4.11-3,4.11S53.76,77.22,53.76,75a12,12,0,0,1,2-6.14C41.23,65.54,18.89,51.91,18.89,36.23ZM59.7,88a3.05,3.05,0,0,1-6.1,0c0-1.6.92-5.31,2.61-5.31S59.7,86.44,59.7,88Zm-3.65,14.71c21.65,0,39.19,10.34,39.19,23.11H16.86C16.86,113.09,34.4,102.75,56.05,102.75Z"/></g></g></svg>