<svg xmlns="http://www.w3.org/2000/svg" viewBox="0 0 78.68 78.64"><defs><style>.cls-1{fill:#689331;}</style></defs><title>woods</title><g id="Capa_2" data-name="Capa 2"><g id="Capa_1-2" data-name="Capa 1"><path class="cls-1" d="M54.42,27.33a1.19,1.19,0,0,1-.16.08h.24A.3.3,0,0,1,54.42,27.33Z"/><path class="cls-1" d="M57.72,33.8l-.5.1c-.33.41-.65.83-1,1.25l1.89-.83A1,1,0,0,1,57.72,33.8Z"/><path class="cls-1" d="M51.56,24.35c-.32-.54.19-1.2,1-1.59a1.48,1.48,0,0,1-.37-.24c-1.78,0-2-.09-2.37-.43l-.23.17a18.84,18.84,0,0,0,1.63,2.3Z"/><path class="cls-1" d="M40.74,29.56c1.23-6.36,1.3,3.6,2.17,3.83,2.28-3.52,6.09-6.51,7.75-8.31a6.77,6.77,0,0,1-1.81-2.44,2.35,2.35,0,0,1-1.29.06c-2.41,1.3-4.51.92-4.14-.43C42.18,22.08,41,21.2,41,20.41c-2.2.67-3.87.18-3.81-.87h0C37.4,29,40.6,29.4,40.74,29.56Z"/><path class="cls-1" d="M42.63,53.49a31.74,31.74,0,0,1,3-6.43c-.63-1.82.37-2.13,1.52-2.45,2.86-4.58,4-5,4.07-5.6.08-1.83.18-3.19.19-4.87,0,0-1.74,0-1.76,0-5.12.79-2.54-3,.1-3.35.72-2.41,2.88-.93,3-.71,1.21,0,1,0,1.24.16A1.28,1.28,0,0,1,55.21,30c2-.31,1.39-.41,2.27.13a4,4,0,0,1,.79-.45c-1.58-.26-1.27-.37-1.75-.85-1.94.15-1.66-.52-1.93-1h0a8.36,8.36,0,0,1-1.43.07,13,13,0,0,1-4.76.92C41.57,36.7,42.34,45.94,42.63,53.49Z"/><path class="cls-1" d="M56.58,39.87l.45-.14h-.26Z"/><path class="cls-1" d="M56,33.88c-.51-.12-.66-.4-.59-.71a3.66,3.66,0,0,1-2.27.29,2.93,2.93,0,0,0-.92.72c-.52,2.5.06,3.14-.09,3.9a.25.25,0,0,0,0,.1A24.4,24.4,0,0,1,56,33.88Z"/><path class="cls-1" d="M52.87,41a76.44,76.44,0,0,1,6.77-4,1.2,1.2,0,0,1,.49-.68c.16-1.33.39-1.07,1-1.53a1.49,1.49,0,0,1-.33-.39C52.06,36.91,54.87,39.46,52.87,41Z"/><path class="cls-1" d="M37.93,78.25h0c.35-6.82.44-14.94-1.16-19.86a1.19,1.19,0,0,1-1.19.13c-.16.75-6.81.19-5.1-.54a1.78,1.78,0,0,1-.76-.36c-3.59,2.63-5.3-1-2.24-1.17-2.06-1.23-.25-2.71,1.86-2.41-.07-.64,2.06-2,2.84-2a1,1,0,0,1,.44-1.36,7.06,7.06,0,0,0-.69-.82,57.53,57.53,0,0,0-13.64-3.35,1.86,1.86,0,0,1-1.79,0c-1.95,2.68-5.94.42-3.78-.84-2.6-2.92,2.34-2.18,2.53-2.77-1-1.28.42-1.37.45-1.58-2.89-.3-3.07-.57-2.53-1.32-3.05-1-1.36-1.95-.28-2.08-.81-.88.21-2,1.61-2-1.31-2.06,1.12-2.08,1.82-1.71a3.42,3.42,0,0,1,1.77.2c-1.11-2.37,2-2,2.32-1.57,2.88-1.57,2.64.94,2.51,1.35a2.76,2.76,0,0,1,2.3-.06c2-1.77,3.94-.83,4.22.22,1.95-.29,2.25,0,2.32.75,1.75.18,1.31,1.11,1.06,1.41,1.73.23,1.65.79,1.32,1.43,2.07,1.11,1.57.77,2.07,1a16.07,16.07,0,0,0-3.56-5.34c-4.82-1.15-9.56-2.67-12.62-5-3.75,1.76-3.6-1.33-2.48-1.8a.7.7,0,0,1-.34-.59c-6.87,1.52-4.77-2.37-.77-2.48-2.65-.94.18-2.45,1.3-2.37.56-2,2.9-3,3.45-3.3-.55-3.12,2.14-1.6,1.94-2,.35-3.46,3.41.11,2.79.66a2.41,2.41,0,0,1,1.7.56,8.76,8.76,0,0,1,.87-.35c-1.88-2.31,1.19-2.82,2.12-2.51.43-.46,5.6-1.39,5.94-.4,1.51-.11,1-.22,1.49-.1.76-2.3,5-1,4.17.24,3.19-.56,2.5,1.1,2.37,1.56,3.06.08,3.36,1.06,2.62,1.89,2.41.23,1.83.43,2.35.58,1.24-2.17,3-1,3.46-.9,1.81-1.69,4.15-.46,4.21.24,1.81,0,1.49,1.38,1.24,1.62.66,1.35-.58,3.57-1,4.07-.81,1.59-3.94,2.14-5.19,1.7-2.16,2-2.7,2.6-3.37,3.27a28,28,0,0,0,5.51-1.45,3.36,3.36,0,0,1,1.64-1.23c1.69-2.41,2.47-1,3.16-.89a1.24,1.24,0,0,1,1.44.89c1-.32,5,.41,6,.89,2.76.38,1.14,1.77,1.25,1.75,1.14.06,1.42.9.83,1.47-.14,2.36-1.94,1-1.91,1.47-.11.17-.07.11-.15.19a1.07,1.07,0,0,1,.36.73c3.86-.54,1.44,4.8.57,5.11.49.84.16,1.92-1.19,2.31-2.64,1.84-4.3.73-4.28-.25-7.1.57-8.54,2.88-11.14,5.19h0a4,4,0,0,1,2.76-.84c1.79-2,4.36-.86,4.14-.07,2.3.23,1.46,1.87,1.12,2.26,1.52,0,1.28.19,1.73.59,4.42-1.26,3.82.27,3.51,1.23,1,.19,1.33.67.93,1.26,1.8.78-.86,2.77-2,2.44a2.68,2.68,0,0,1-4.14.22,2.14,2.14,0,0,1-.8-.08c-2.62,2.21-12.24,4.26-9.53,1.86-3.33-.7-.83-2.3.06-2.53a1.36,1.36,0,0,1,.14-.4,3.37,3.37,0,0,1-1.66-.92c-5,9.08-3.71,17.72-4,25.13a15,15,0,0,1,.11,4,39.46,39.46,0,1,0-5.36.18C38,78.49,37.89,78.35,37.93,78.25Z"/><path class="cls-1" d="M58.28,38.89c4.65-.41,3.35-.4,4.4-.49a1.84,1.84,0,0,1,.2-.19,6.58,6.58,0,0,1-2.64-.5A14.74,14.74,0,0,1,58.28,38.89Z"/><path class="cls-1" d="M33.35,23.14c.83.43,1.78,1,.76,1.58a16.85,16.85,0,0,0,3.06,1.68,24.48,24.48,0,0,1-.76-6.6,4.51,4.51,0,0,1-.53.1c-.36,1.72-1.29,1.14-1.42,1.39C35.64,22.58,34.29,23,33.35,23.14Z"/><path class="cls-1" d="M51.5,34.14h-.12a.41.41,0,0,0,0,.11Z"/><path class="cls-1" d="M20.58,40.43c-.83-.44-.59-.32-1-.55-.2,1.19.08.77-.47,1.24,2.26,1.62,2.15,2.05,1.11,2.7a1.13,1.13,0,0,1-.36.72,30.27,30.27,0,0,0,4.49,2c2.11.72,4.38,1.33,6.42,2a72.32,72.32,0,0,0-10.22-8.14Z"/><path class="cls-1" d="M33.41,38.36a2.11,2.11,0,0,1-.38.12c2.2,2.13-2.11,2.54-1.89,2.29-.72,1.2-1.4.77-1.62.91a2.19,2.19,0,0,1-.3.47,15.07,15.07,0,0,0,5.54,7c1.44.38,1.44.64,1.82,1a1.13,1.13,0,0,1,.21-.15,1.56,1.56,0,0,1,1-.22,30.35,30.35,0,0,0-1.11-9.71A11.51,11.51,0,0,1,33.41,38.36Z"/><path class="cls-1" d="M23.42,26.57a3.93,3.93,0,0,1-2.22.66,2.27,2.27,0,0,1-.64.91,36.77,36.77,0,0,0,6.18,3l.25.09a26.58,26.58,0,0,0-2.6-4.69A2.87,2.87,0,0,1,23.42,26.57Z"/><path class="cls-1" d="M42.12,34.8a7,7,0,0,1-1.43-4.13,4.41,4.41,0,0,1-3.17-3.4,11,11,0,0,1-3.83-2.39,1.22,1.22,0,0,1-.26.06c.35,3.33-4.92,4.38-4.22,1.64a4.05,4.05,0,0,1-3.28,1c1.1,1.27,2,2.72,1.85,4,1.37.47,2.77.92,4.16,1.39-.27-.27-.53-.53-.76-.8a1.68,1.68,0,0,1,1.34,0s2.31,1.79,3.06,2.4a26.79,26.79,0,0,0-.12-2.83c-10.89-5-3.05-2.12-.07-.6-.31-2.1-.2-2.13-.2-2.13a.66.66,0,0,1,.67.51,22.78,22.78,0,0,1,.46,5.86c.33.38.65.78,1,1.18A14.45,14.45,0,0,1,39.87,41C40.73,36.46,41.42,36.23,42.12,34.8Z"/><path class="cls-1" d="M19,45a1.08,1.08,0,0,1-.22,1.08c1.37.2,2.76.34,4.13.55a34.6,34.6,0,0,1-3.49-1.79A1.14,1.14,0,0,1,19,45Z"/><path class="cls-1" d="M21.69,40.08h.18c-.21-.77-.35-1.55-.55-2.31a4.19,4.19,0,0,1-1.49-.09c-.48,1-.18.7-.89,1.05,2.58,1.25,1.84.63,2.58,1.26Z"/><path class="cls-1" d="M28.27,42.87a2.74,2.74,0,0,1-.76.17,3.48,3.48,0,0,1-1.15-.12c.78.6,1.59,1.18,2.49,1.75C28.63,44.07,28.46,43.47,28.27,42.87Z"/><path class="cls-1" d="M28.93,44.91a.42.42,0,0,0,0-.12l-.08,0Z"/><path class="cls-1" d="M25.27,42.06c-.13-.5,0-.47,0-.59a1.28,1.28,0,0,1-1.1-.53c-.19-.43.06-.87.68-1.13-1.1-.84-1-1.28-.72-1.46-1.24-.23-1.35-.79-1.4-1a3.16,3.16,0,0,1-.5.22C23.13,40,24.05,41.41,25.27,42.06Z"/><path class="cls-1" d="M52.87,41l-.33.21A2.08,2.08,0,0,0,52.87,41Z"/></g></g></svg>